<?xml version="1.0" standalone="no"?><!DOCTYPE svg PUBLIC "-//W3C//DTD SVG 1.1//EN" "http://www.w3.org/Graphics/SVG/1.1/DTD/svg11.dtd"><svg t="1547448685890" class="icon" style="" viewBox="0 0 1024 1024" version="1.1" xmlns="http://www.w3.org/2000/svg" p-id="1951" xmlns:xlink="http://www.w3.org/1999/xlink" width="200" height="200"><defs><style type="text/css"></style></defs><path d="M712.7 221.8c-13.4-13.4-32.5-17.6-49.5-12.5-12.8 3.8-26.5 3.1-38.3-3.1C508.2 144.8 345 176.3 229 292.3S81.5 571.4 142.9 688.1c6.2 11.8 6.9 25.6 3.1 38.3-5.1 17-0.9 36.1 12.5 49.5 13.4 13.4 32.5 17.6 49.5 12.5 12.8-3.8 26.5-3.1 38.3 3.1 116.7 61.4 279.9 29.9 395.9-86.1s147.5-279.1 86.1-395.9c-6.2-11.8-6.9-25.6-3.1-38.3 5-16.9 0.9-36-12.5-49.4z" fill="#FFD401" p-id="1952"></path><path d="M345.1 245.7l-33-36c-14.9-16.2-13.8-41.5 2.5-56.4l36-33c74.5-68.2 190.2-63.1 258.4 11.4l33 36c14.9 16.2 13.8 41.5-2.5 56.4l-36 33c-74.5 68.2-190.2 63.1-258.4-11.4zM433.3 385.4c39 0 39.1-60.6 0-60.6-39 0-39.1 60.6 0 60.6zM406 497.6c39 0 39.1-60.6 0-60.6-39-0.1-39.1 60.6 0 60.6zM312 424.8c39 0 39.1-60.6 0-60.6-39 0-39 60.6 0 60.6zM920.9 563.3c-3.5-2.4-7.5-4.1-11.8-5l-0.1-0.1v0.1c-2.5-0.5-5.2-0.8-7.9-0.7l-484.6 26.2c-14.7 0.8-26.2 13.5-25.1 28.2 3.3 42.5 16.8 84.9 41.2 123.7 75.7 119.8 233.5 161.4 358.3 94.3 11.9-6.4 23.1-13.5 33.6-21.3 71.3-52.8 110.2-135.5 109.7-220 0-10.7-5.4-19.8-13.3-25.4zM800.7 822.5s0.7-0.4 2-1.2c-1.2 0.8-2 1.2-2 1.2z" fill="#8BC03C" p-id="1953"></path><path d="M603.5 257.1l36-33c4-3.7 7.1-7.9 9.2-12.5-8.2 0.2-16.4-1.5-23.9-5.4-87.7-46.1-201.5-39.8-301.9 15.3l22.2 24.3c68.2 74.4 183.9 79.5 258.4 11.3zM734 566.6l-317.5 17.1c-14.7 0.8-26.2 13.5-25.1 28.2 3.3 42.5 16.8 84.9 41.2 123.7 16.3 25.7 36.3 47.9 59 66.1 53.6-19.1 105.6-51.3 150.5-96.2 41.8-41.6 72.5-89.4 91.9-138.9z" fill="#8BA000" p-id="1954"></path><path d="M722.1 651.4l61.5 84c5.3 7.2 15.4 8.8 22.5 3.5 18-13.2 48.3-43.8 58.8-104.3 1.8-10.5-6.7-19.9-17.3-18.9l-114 10.1c-12.5 1.1-18.9 15.5-11.5 25.6zM589.6 639.9l-102.5 3.8c-9.6 0.4-16.4 9.2-14.5 18.6 4.4 21.8 18.8 59.6 65.7 93.3 7.7 5.5 18.5 2.7 22.7-5.8l43.1-87.7c5.1-10.5-2.8-22.7-14.5-22.2zM650.1 649.2l-52.3 103.4c-4.6 9-0.3 20 9.1 23.6 26.8 10 81.3 23.4 136.9-4.3 9.4-4.7 12.5-16.6 6.4-25.2l-71-99.7c-7.5-10.4-23.3-9.2-29.1 2.2z" fill="#FFFFFF" p-id="1955"></path></svg>