<?xml version="1.0" standalone="no"?><!DOCTYPE svg PUBLIC "-//W3C//DTD SVG 1.1//EN" "http://www.w3.org/Graphics/SVG/1.1/DTD/svg11.dtd"><svg t="1547448694597" class="icon" style="" viewBox="0 0 1024 1024" version="1.1" xmlns="http://www.w3.org/2000/svg" p-id="2077" xmlns:xlink="http://www.w3.org/1999/xlink" width="200" height="200"><defs><style type="text/css"></style></defs><path d="M626.6 344h-41.5c-13.8 0-25-11.2-25-25v-41.5c0-69.9 56.7-126.6 126.6-126.6h41.5c13.8 0 25 11.2 25 25v41.5c0 69.9-56.6 126.6-126.6 126.6z" fill="#8BC03C" p-id="2078"></path><path d="M556.5 279.7l-3.8 12.5c-6.4 20.7-28.3 32.3-48.9 25.9l-12.5-3.8c-74.3-22.9-116-101.7-93.1-176l3.8-12.5c6.4-20.7 28.3-32.3 48.9-25.9l12.5 3.8c74.3 22.9 116 101.7 93.1 176zM664 356.9l-11.1-7c-18.3-11.5-23.8-35.7-12.3-54l7-11.1c41.3-65.8 128.2-85.7 194.1-44.4l11.1 7c18.3 11.5 23.8 35.7 12.3 54l-7 11.1c-41.3 65.9-128.2 85.7-194.1 44.4z" fill="#8BC03C" p-id="2079"></path><path d="M753.1 219.8c-41.8 4.1-81.4 26.7-105.5 65.1l-7 11.1c-9.4 15-7.4 33.9 3.7 46.6 60.8-8.5 107.6-60 108.8-122.8z" fill="#4C910E" p-id="2080"></path><path d="M288.3 170.3l1-13c1.6-21.6 20.5-37.7 42-36l13 1c77.5 5.9 135.6 73.6 129.6 151.1l-1 13c-1.6 21.6-20.5 37.7-42 36l-13-1c-77.5-5.9-135.5-73.6-129.6-151.1z" fill="#8BC03C" p-id="2081"></path><path d="M398.3 137.5l-0.2 0.8c-20.3 65.8 10.2 135.1 69 166 3.3-5.2 5.4-11.3 5.9-17.9l1-13c4.4-58.2-27-110.7-75.7-135.9z" fill="#4C910E" p-id="2082"></path><path d="M205.8 329.5C76.9 470.2 92.6 666.7 221.7 807.2c25.6 27.8 32.9 63.5 64.2 81C412.5 959 593.7 932 715.2 839c186.9-143 202-374.5 72.9-515-51-55.5-125.4-94.6-224.7-87.2-20.3 1.5-40.6-0.8-60.1-6.8-106.9-32.8-218 12.9-297.5 99.5z" fill="#FFD401" p-id="2083"></path><path d="M362 432.9c-1.7 0-3.3-0.1-5-0.4-15.7-2.8-26.2-17.7-23.4-33.4C355.8 272.8 453.8 248.8 458 247.8c15.5-3.6 31 6.1 34.6 21.6 3.6 15.4-6 30.8-21.4 34.5-3.2 0.8-65.5 18-80.9 105.2-2.4 14-14.6 23.8-28.3 23.8z" fill="#FFFFFF" p-id="2084"></path></svg>