<?xml version="1.0" standalone="no"?><!DOCTYPE svg PUBLIC "-//W3C//DTD SVG 1.1//EN" "http://www.w3.org/Graphics/SVG/1.1/DTD/svg11.dtd"><svg t="1547715486175" class="icon" style="" viewBox="0 0 1024 1024" version="1.1" xmlns="http://www.w3.org/2000/svg" p-id="4394" xmlns:xlink="http://www.w3.org/1999/xlink" width="200" height="200"><defs><style type="text/css"></style></defs><path d="M531.5 211.2l-15-41.7c-6.8-18.8 3-39.6 21.8-46.3l41.7-15c86.3-31.1 181.4 13.6 212.5 99.9l15 41.7c6.8 18.8-3 39.6-21.8 46.3l-41.7 15c-86.3 31.1-181.4-13.6-212.5-99.9z" fill="#8BC03C" p-id="4395"></path><path d="M774 763.3c-162.4 98.1-332.9-14.9-355.5-179.5-10.8-78 34.5-122.6 99-153.9 28.7-13.9 55.8-29.5 81.6-48.3 53.8-39.3 110.4-60.9 172.1-21.9 148.4 94 161.6 307.7 2.8 403.6z" fill="#d81e06" p-id="4396" data-spm-anchor-id="a313x.7781069.0.i13" class="selected"></path><path d="M426.5 887.7c-184.3 45.4-313.4-113.1-286.2-277 12.9-77.7 69.3-106.9 140.2-117.6 31.5-4.8 62.1-11.6 92.3-21.9 63.1-21.5 123.6-25.3 170.8 30.2 113.9 133.9 63 341.9-117.1 386.3z" fill="#d81e06" p-id="4397" data-spm-anchor-id="a313x.7781069.0.i14" class="selected"></path><path d="M583.2 391c-72.6-69.5-107.5-172.1-89-271.4 6.1-32.9-40.4-48.2-52.1-21.4-8-2-16.8 0.1-24.1 8.4-54.3 62.4-92.4 140.2-113 220.1-9.8 38.2-15.8 77.6-17.7 117-1.6 33.2-1.3 70.5 26.4 93.6 27.5 22.9 67.4-16.5 39.7-39.7-19.1-15.9-10.3-57.2-8.2-79.1 3.1-32.6 9.9-65 19.3-96.4 15.2-50.9 38.3-101.5 69.4-145.4 1.3 94.8 39.5 186.8 109.5 253.8 26.2 25.1 65.9-14.5 39.8-39.5z" fill="#22802A" p-id="4398"></path><path d="M543.6 430.6c25.7 24.6 64.7-13.6 40.6-38.7-16.1 10.8-32.6 20.5-49.8 29.4 3 3.2 6 6.3 9.2 9.3zM313.9 537.3c27.5 22.9 67.4-16.5 39.7-39.7-5.1-4.3-8.2-10.4-10-17.5-17.9 4.8-35.9 8.6-54.3 11.6 3.1 17.4 10 33.5 24.6 45.6z" fill="#226A00" p-id="4399"></path><path d="M543.7 501.6c-21.9-25.8-46.7-38.7-73.3-43.1-37.7 29.2-59.8 68.3-51.9 125.4 12.8 93.1 72.9 169.6 152.1 200.9 51.1-84 45.2-198.5-26.9-283.2z" fill="#d81e06" p-id="4400" data-spm-anchor-id="a313x.7781069.0.i12" class="selected"></path></svg>