<?xml version="1.0" standalone="no"?><!DOCTYPE svg PUBLIC "-//W3C//DTD SVG 1.1//EN" "http://www.w3.org/Graphics/SVG/1.1/DTD/svg11.dtd"><svg t="1547715506368" class="icon" style="" viewBox="0 0 1024 1024" version="1.1" xmlns="http://www.w3.org/2000/svg" p-id="4715" xmlns:xlink="http://www.w3.org/1999/xlink" width="200" height="200"><defs><style type="text/css"></style></defs><path d="M674.2 450.9h-53.3c-17.7 0-32.1-14.4-32.1-32.1v-53.3c0-89.9 72.9-162.8 162.8-162.8h53.3c17.7 0 32.1 14.4 32.1 32.1v53.3c0 89.9-72.9 162.8-162.8 162.8z" fill="#8BC03C" p-id="4716"></path><path d="M552.7 361.1h-53.3c-17.7 0-32.1-14.4-32.1-32.1v-53.3c0-89.9 72.9-162.8 162.8-162.8h53.3c17.7 0 32.1 14.4 32.1 32.1v53.3c0 89.9-72.9 162.8-162.8 162.8z" fill="#8BC03C" p-id="4717"></path><path d="M482 311.1l-15.5 11.8c-14.1 10.7-34.3 8-45-6.1l-11.8-15.5c-41.8-55-31.1-133.6 23.9-175.4l15.5-11.8c14.1-10.7 34.3-8 45 6.1l11.8 15.5c41.9 55 31.1 133.5-23.9 175.4zM665.2 469.3L654.4 453c-9.8-14.8-5.7-34.7 9.1-44.5l16.3-10.8c57.7-38.2 135.4-22.4 173.6 35.4l10.8 16.3c9.8 14.8 5.7 34.7-9.1 44.5l-16.3 10.8c-57.7 38.1-135.4 22.3-173.6-35.4z" fill="#22802A" p-id="4718"></path><path d="M715.3 206.8C645.5 222.7 592.8 283.4 589 357c69.8-15.9 122.5-76.5 126.3-150.2z" fill="#4C910E" p-id="4719"></path><path d="M518.9 156.8c-31.7 29.7-51.6 72-51.6 118.9v46.5L482 311c48.3-36.6 62.5-101.6 36.9-154.2zM802 388.9c-38.2-17.9-84.5-16.1-122.3 8.8l-16.3 10.8c-14.1 9.3-18.4 27.9-10.3 42.4h21c51.9 0 98.1-24.3 127.9-62z" fill="#13600A" p-id="4720"></path><path d="M255.2 865.8c-196.4-113.9-121.7-581 106.1-608.9C553.8 233.4 780.9 392.3 780.9 573c0 196.4-373.5 381-525.7 292.8z" fill="#d81e06" p-id="4721" data-spm-anchor-id="a313x.7781069.0.i17" class="selected"></path><path d="M346.4 397.8c-6.6 0-13.1-2.3-18.5-6.9-11.7-10.2-12.8-27.9-2.6-39.6l15.7-17.9c10.2-11.7 27.9-12.8 39.6-2.6 11.7 10.2 12.8 27.9 2.6 39.6l-15.7 17.9c-5.6 6.3-13.3 9.5-21.1 9.5zM451.9 479.6c-6.6 0-13.1-2.3-18.5-6.9-11.7-10.2-12.8-27.9-2.6-39.6l15.7-17.9c10.2-11.7 27.9-12.8 39.6-2.6 11.7 10.2 12.8 27.9 2.6 39.6L473 470c-5.5 6.4-13.3 9.6-21.1 9.6zM551.8 567c-6.6 0-13.1-2.3-18.4-6.9-11.7-10.2-12.9-27.9-2.7-39.6l15.7-17.9c10.2-11.7 27.9-12.9 39.6-2.6 11.7 10.2 12.9 27.9 2.7 39.6L573 557.5c-5.6 6.3-13.4 9.5-21.2 9.5zM657.4 660c-6.6 0-13.1-2.3-18.4-6.9-11.7-10.2-12.9-27.9-2.7-39.6l15.7-17.9c10.2-11.7 27.9-12.9 39.6-2.6 11.7 10.2 12.9 27.9 2.7 39.6l-15.7 17.9c-5.7 6.3-13.4 9.5-21.2 9.5zM281 646.1c-6.6 0-13.1-2.3-18.5-6.9-11.7-10.2-12.8-27.9-2.6-39.6l15.7-17.9c10.2-11.7 27.9-12.8 39.6-2.6 11.7 10.2 12.8 27.9 2.6 39.6l-15.7 17.9c-5.5 6.3-13.3 9.5-21.1 9.5zM400.5 753.5c-6.6 0-13.1-2.3-18.5-6.9-11.7-10.2-12.8-27.9-2.6-39.6l15.7-17.9c10.2-11.7 27.9-12.8 39.6-2.6 11.7 10.2 12.8 27.9 2.6 39.6L421.6 744c-5.5 6.2-13.3 9.5-21.1 9.5zM276.6 784.7c-6.6 0-13.1-2.3-18.5-6.9-11.7-10.2-12.8-27.9-2.6-39.6l15.7-17.9c10.2-11.7 27.9-12.8 39.6-2.6 11.7 10.2 12.8 27.9 2.6 39.6l-15.7 17.9c-5.6 6.3-13.3 9.5-21.1 9.5zM312.1 516.8c-6.6 0-13.1-2.3-18.5-6.9-11.7-10.2-12.8-27.9-2.6-39.6l15.7-17.9c10.2-11.7 27.9-12.8 39.6-2.6 11.7 10.2 12.8 27.9 2.6 39.6l-15.7 17.9c-5.5 6.3-13.3 9.5-21.1 9.5zM420.4 613c-6.6 0-13.1-2.3-18.5-6.9-11.7-10.2-12.8-27.9-2.6-39.6l15.7-17.9c10.2-11.7 27.9-12.8 39.6-2.6 11.7 10.2 12.8 27.9 2.6 39.6l-15.7 17.9c-5.5 6.2-13.3 9.5-21.1 9.5zM528.8 709.1c-6.6 0-13.1-2.3-18.5-6.9-11.7-10.2-12.8-27.9-2.6-39.6l15.7-17.9c10.2-11.7 27.9-12.8 39.6-2.6 11.7 10.2 12.8 27.9 2.6 39.6l-15.7 17.9c-5.6 6.3-13.3 9.5-21.1 9.5z" fill="#e6e6e6" p-id="4722" data-spm-anchor-id="a313x.7781069.0.i18" class=""></path></svg>