<?xml version="1.0" standalone="no"?><!DOCTYPE svg PUBLIC "-//W3C//DTD SVG 1.1//EN" "http://www.w3.org/Graphics/SVG/1.1/DTD/svg11.dtd"><svg t="1547448699010" class="icon" style="" viewBox="0 0 1024 1024" version="1.1" xmlns="http://www.w3.org/2000/svg" p-id="2206" xmlns:xlink="http://www.w3.org/1999/xlink" width="200" height="200"><defs><style type="text/css"></style></defs><path d="M100.580581 600.442471a310 388.3 72.901 1 0 742.272841-228.338762 310 388.3 72.901 1 0-742.272841 228.338762Z" fill="#8BC03C" p-id="2207"></path><path d="M395.7 731.1h-2.2c-22.5-0.7-40.6-12.4-56.6-22.6-9.2-5.9-18-11.5-25.4-13.6-6.3-1.8-15.8-1.7-25.8-1.6-19.3 0.2-43.3 0.5-64.2-13.2-18.2-11.9-27-31.2-34.8-48.3-4.8-10.6-9.4-20.6-15.2-27.2-9.9-11.2-8.8-28.4 2.5-38.2 11.2-9.9 28.4-8.8 38.2 2.5 11.1 12.7 17.9 27.5 23.8 40.5 4.7 10.4 10.1 22.1 15.1 25.4 7.1 4.6 20.2 4.5 34 4.3 13.4-0.1 27.4-0.3 41.2 3.6 15.2 4.3 28.3 12.7 39.9 20.2 10.6 6.8 21.5 13.8 29 14.1 7.6 0.2 18.9-5.6 29.9-11.3 13.3-6.9 28.3-14.6 45.2-16.6 16-1.9 32.1-0.8 47.6 0.3 21.6 1.4 42 2.8 57.8-4 13.9-5.9 26.6-20.7 40.1-36.2 11.1-12.8 22.6-26.1 36.8-37.3 13.3-10.5 28.4-18 43.1-25.4 18.9-9.5 36.7-18.4 47.1-31.8 8.9-11.5 13.1-29.9 17.6-49.4 4-17.3 8.1-35.3 16.1-52.6 6.3-13.6 22.4-19.5 35.9-13.2 13.6 6.3 19.5 22.4 13.2 35.9-5.7 12.2-9 26.7-12.5 42-5.6 24.3-11.3 49.5-27.6 70.4-17.9 23.2-43.3 35.9-65.7 47.1-12.8 6.4-24.8 12.4-33.8 19.5-10.1 8-19.4 18.7-29.3 30.1-16.9 19.5-34.4 39.8-59.7 50.6-27.7 11.9-56.9 9.9-82.7 8.2-13.7-0.9-26.7-1.8-37.8-0.5-7 0.8-16.9 5.9-26.5 10.9-15.8 8.2-33.6 17.4-54.3 17.4z" fill="#22802A" p-id="2208"></path><path d="M697.4 784.3c92.6-3.3 157.9-46.6 197.9-84.9L746.9 493.5c-4.6-6.4-12-10.2-19.9-10.2h-58.9c-8 0-15.5 3.9-20.1 10.5L497.8 708.9c32.8 34.6 95.6 79.1 199.6 75.4z" fill="#FFD401" p-id="2209"></path><path d="M756.8 690.7V704c0 6.4 2.8 13.1 7.3 17.6 4.3 4.3 11.4 7.6 17.6 7.3 13.5-0.6 24.9-10.9 24.9-24.9v-13.3c0-6.4-2.8-13.1-7.3-17.6-4.3-4.3-11.4-7.6-17.6-7.3-13.5 0.6-24.9 10.9-24.9 24.9zM666.5 690.7V704c0 6.4 2.8 13.1 7.3 17.6 4.3 4.3 11.4 7.6 17.6 7.3 13.5-0.6 24.9-10.9 24.9-24.9v-13.3c0-6.4-2.8-13.1-7.3-17.6-4.3-4.3-11.4-7.6-17.6-7.3-13.5 0.6-24.9 10.9-24.9 24.9zM709.7 607.7v9.3c0 6.4 2.8 13.1 7.3 17.6 4.3 4.3 11.4 7.6 17.6 7.3 13.5-0.6 24.9-10.9 24.9-24.9v-9.3c0-6.4-2.8-13.1-7.3-17.6-4.3-4.3-11.4-7.6-17.6-7.3-13.5 0.6-24.9 10.9-24.9 24.9z" fill="#FFFFFF" p-id="2210"></path><path d="M655.3 844.5c130.5 11.3 202.2-14.7 260.4-88.3 6.4-8.1 6.6-19.5 0.6-27.9l-20.8-28.9c-40.1 38.3-105.4 81.6-197.9 84.9C593.5 788 530.8 743.6 498 709l-14.5 20.8c-5.5 7.9-5.6 18.5-0.1 26.4 18 25.8 67.7 79.2 171.9 88.3z" fill="#8BC03C" p-id="2211"></path><path d="M497.8 708.9l-14.5 20.8c-5.5 7.9-5.6 18.5-0.1 26.4 6.9 9.9 18.5 23.8 35.9 37.7 14.5-3 29.1-6.7 43.7-11.2 11.4-3.5 22.6-7.5 33.5-11.7-46.1-15.2-78.1-40.5-98.5-62z" fill="#4C910E" p-id="2212"></path><path d="M171 624.5c-12.3 0-23.4-8.4-26.3-20.9-6.2-26.1 2.9-50 10.2-69.2 3.5-9.2 6.8-18 7.6-24.6 0.9-8-0.2-18-1.4-28.6-2.4-21.1-5-45.1 6.9-67.4 11.3-21.2 31.5-32.4 49.3-42.3 9.9-5.5 19.2-10.7 25.1-16.4 5.4-5.3 10.5-14.6 15.8-24.3 9.5-17.3 20.2-37 40.3-49.4 18.6-11.5 39.9-12.6 58.7-13.6 12-0.6 23.3-1.2 31.1-4.3 7.5-3 16-10.3 25.1-18 14.2-12.2 30.4-25.9 51.7-30.8 21.6-4.9 42.2 0.6 60.3 5.5 11.4 3.1 22.1 5.9 30 5.4 8.6-0.6 19.2-5 30.4-9.6 17.3-7.1 37-15.2 58.5-12.9 24.1 2.6 42.5 16.2 58.6 28.2 8.7 6.4 16.9 12.5 23.7 15 14.1 5.1 21.3 20.7 16.1 34.8-5.1 14.1-20.7 21.3-34.8 16.1-14.1-5.2-25.9-13.9-37.3-22.3-11.7-8.7-22.7-16.8-32.3-17.9-7.8-0.8-20.1 4.2-31.9 9.1-14 5.8-29.9 12.4-47.3 13.6-16.9 1.2-33.3-3.2-47.8-7.1-13.3-3.6-25.8-6.9-34.3-5-8.3 1.9-18.1 10.3-28.5 19.1-11.5 9.8-24.4 20.9-40.4 27.2-16.1 6.3-33.1 7.2-48.2 8-12.9 0.7-26.3 1.4-33.2 5.6-7.8 4.8-14.3 16.7-21.1 29.2-7 12.8-14.2 26.1-25.4 37-11.1 10.9-24.7 18.5-36.8 25.1-11.8 6.6-24.1 13.4-27.8 20.4-4 7.5-2.5 21.3-0.8 35.8 1.4 12.6 3 26.8 1.3 41-1.6 13.3-6.2 25.6-10.8 37.6-5.4 14.2-10.5 27.6-8.1 37.5 3.4 14.6-5.6 29.2-20.1 32.6-2 0.6-4.1 0.8-6.1 0.8z" fill="#22802A" p-id="2213"></path><path d="M163.1 619.6c-10.6 0-20.7-6.3-25-16.7-5.7-13.8 0.9-29.7 14.7-35.4 17.6-7.3 35.9-6 52-4.8 10.2 0.7 20.8 1.5 26.4-0.6 5.9-2.3 13.3-10.2 20.5-17.9 10.8-11.5 23.1-24.6 40.5-31.2 17.7-6.6 35.7-4.8 51.6-3.2 10.3 1 20.9 2.1 26.4 0 5.9-2.2 13.5-10.1 20.8-17.7 10.8-11.3 23.1-24.1 40.3-30.5 17.5-6.5 35.3-4.9 51-3.4 10.3 0.9 21 1.9 26.5-0.2 5.9-2.3 13.3-10.4 20.4-18.3 10.4-11.4 22.1-24.4 38.8-31.4 16.9-7.1 34.5-6.4 50-5.7 10.5 0.4 21.3 0.8 26.6-1.6 5.7-2.6 12.4-11.4 19-19.9 9.3-12 19.8-25.6 35.4-33.9 15.8-8.4 33-9.5 48.1-10.5 10.6-0.7 21.5-1.4 26.6-4.6 12.7-7.9 29.4-4 37.3 8.7 7.9 12.7 4 29.4-8.7 37.3-16.5 10.3-35.1 11.5-51.6 12.6-10.2 0.7-20.8 1.4-26.4 4.3-5.3 2.8-11.7 11.1-18 19.2-10 13-21.4 27.7-39.1 35.9-17.2 8-35.5 7.3-51.6 6.6-10.4-0.4-21.2-0.8-27 1.6-5.5 2.3-12.6 10.1-19.5 17.7-10.8 12-23.1 25.6-41 32.5-17.4 6.7-35.3 5.1-51.1 3.6-10.5-1-21.3-2-27.2 0.2-5.6 2.1-13 9.8-20.1 17.2-11 11.5-23.5 24.6-41.2 31-17.2 6.3-34.9 4.6-50.5 3-10.5-1-21.4-2.1-27.3 0.1-5.5 2.1-12.9 9.9-20 17.5-10.8 11.5-23 24.5-40.4 31.3-16.9 6.6-34.5 5.3-49.9 4.2-10.6-0.8-21.5-1.6-27.4 0.8-3 1.6-6.5 2.2-9.9 2.2z" fill="#22802A" p-id="2214"></path><path d="M203.8 721c-8.8 0-17.3-4.2-22.6-12.1-28.2-42.3-25.9-108.3-25.6-115.6 0.7-14.9 13.5-26.4 28.3-25.8 14.9 0.7 26.5 13.4 25.8 28.3-0.7 15.2 1 59.7 16.5 83.1 8.3 12.4 4.9 29.3-7.5 37.6-4.5 3.1-9.7 4.5-14.9 4.5z" fill="#22802A" p-id="2215"></path><path d="M182.7 621.7c-3.6 0-7.2-0.7-10.7-2.2-3.3-1.4-79.6-35.1-79.6-124.2 0-15 12.1-27.1 27.1-27.1 15 0 27.1 12.1 27.1 27.1 0 53.8 46.3 74.2 46.8 74.4 13.8 5.9 20.1 21.8 14.2 35.6-4.4 10.3-14.4 16.4-24.9 16.4z" fill="#22802A" p-id="2216"></path><path d="M137.6 642.8c-12.4 0-23.6-8.6-26.4-21.2-3.2-14.6 6-29.1 20.6-32.3l54.2-12c14.6-3.2 29.1 6 32.3 20.6 3.2 14.6-6 29.1-20.6 32.3l-54.2 12c-2 0.4-4 0.6-5.9 0.6z" fill="#22802A" p-id="2217"></path></svg>