<?xml version="1.0" standalone="no"?><!DOCTYPE svg PUBLIC "-//W3C//DTD SVG 1.1//EN" "http://www.w3.org/Graphics/SVG/1.1/DTD/svg11.dtd"><svg t="1545559237311" class="icon" style="" viewBox="0 0 1024 1024" version="1.1" xmlns="http://www.w3.org/2000/svg" p-id="1100" xmlns:xlink="http://www.w3.org/1999/xlink" width="48" height="48"><defs><style type="text/css"></style></defs><path d="M 704.9 34.889 c -28.654 0 -54.356 12.516 -72.013 32.357 l -373.91 373.912 c -19.855 17.664 -32.357 43.363 -32.357 72.008 c 0 24.114 8.872 46.126 23.519 63.04 l -0.279 0.278 l 385.635 385.418 c 17.537 18.195 42.144 29.534 69.389 29.534 c 53.228 0 96.36 -43.133 96.36 -96.349 c 0 -30.843 -14.496 -58.265 -37.032 -75.911 l -305.802 -305.798 l 307.761 -307.765 c 21.433 -17.661 35.08 -44.422 35.08 -74.348 c 0 -53.228 -43.14 -96.358 -96.36 -96.358 l 0.009 -0.019 Z M 704.9 34.889 Z" p-id="1101" fill="#ffffff"></path></svg>