<?xml version="1.0" standalone="no"?><!DOCTYPE svg PUBLIC "-//W3C//DTD SVG 1.1//EN" "http://www.w3.org/Graphics/SVG/1.1/DTD/svg11.dtd"><svg t="1547705122353" class="icon" style="" viewBox="0 0 1024 1024" version="1.1" xmlns="http://www.w3.org/2000/svg" p-id="3176" data-spm-anchor-id="a313x.7781069.0.i6" xmlns:xlink="http://www.w3.org/1999/xlink" width="48" height="48"><defs><style type="text/css"></style></defs><path d="M212.992 526.336 212.992 526.336 212.992 526.336 215.04 526.336 212.992 526.336Z" p-id="3177" fill="#808080"></path><path d="M817.152 202.752 817.152 202.752C737.28 122.88 628.736 75.776 509.952 75.776c-118.784 0-229.376 49.152-307.2 126.976l0 0c-77.824 77.824-126.976 186.368-126.976 307.2 0 118.784 49.152 229.376 126.976 307.2 77.824 79.872 188.416 126.976 307.2 126.976 120.832 0 229.376-49.152 307.2-126.976 79.872-77.824 126.976-186.368 126.976-307.2C946.176 389.12 897.024 280.576 817.152 202.752zM770.048 770.048c-65.536 65.536-157.696 108.544-260.096 108.544-102.4 0-194.56-40.96-260.096-108.544C184.32 704.512 141.312 612.352 141.312 509.952s40.96-194.56 108.544-260.096C317.44 184.32 409.6 141.312 509.952 141.312c100.352 0 192.512 40.96 258.048 106.496l2.048 2.048c65.536 65.536 108.544 157.696 108.544 260.096S837.632 704.512 770.048 770.048z" p-id="3178" data-spm-anchor-id="a313x.7781069.0.i7" class="" fill="#808080"></path><path d="M724.992 296.96 724.992 296.96 296.96 296.96 296.96 724.992 724.992 724.992 724.992 296.96Z" p-id="3179" data-spm-anchor-id="a313x.7781069.0.i3" class="selected" fill="#1296db"></path></svg>