<?xml version="1.0" standalone="no"?><!DOCTYPE svg PUBLIC "-//W3C//DTD SVG 1.1//EN" "http://www.w3.org/Graphics/SVG/1.1/DTD/svg11.dtd"><svg t="1547523868295" class="icon" style="" viewBox="0 0 1024 1024" version="1.1" xmlns="http://www.w3.org/2000/svg" p-id="3511" xmlns:xlink="http://www.w3.org/1999/xlink" width="48" height="48"><defs><style type="text/css"></style></defs><path d="M918.4 378.6C844 153.8 601.4 31.9 376.6 106.4c-224.8 74.4-346.7 317-272.2 541.8 74.4 224.8 317 346.7 541.8 272.2 224.7-74.5 346.6-317 272.2-541.8z m-407 298.7c-90.5 0-163.9-73.4-163.9-163.9s73.4-163.9 163.9-163.9 163.9 73.4 163.9 163.9-73.4 163.9-163.9 163.9z" fill="#F5CC49" p-id="3512"></path><path d="M375.7 605.3c-17.8-26.2-28.2-57.9-28.2-92 0-90.5 73.4-163.9 163.9-163.9 34.3 0 66.1 10.6 92.4 28.5-29.5-43.4-79.3-72-135.7-72-90.5 0-163.9 73.4-163.9 163.9-0.1 56.4 28.3 106 71.5 135.5zM918.4 378.6c-25.1-75.8-69.4-139.9-125.6-188.7 35.7 41.3 64.1 90.2 82.3 145.3C949.5 560 827.6 802.5 602.9 877c-149 49.3-305.7 12.4-416.1-83.5 110 127.4 289.8 183.1 459.5 127 224.6-74.6 346.5-317.1 272.1-541.9z" fill="#F08938" p-id="3513"></path><path d="M511.7 960.2c-187.5 0-362.5-119-424.5-306.4-37.5-113.3-28.7-234.4 24.9-341.1 53.6-106.6 145.5-186 258.8-223.6 113.3-37.5 234.5-28.6 341.1 25 106.7 53.6 186 145.5 223.6 258.8 77.5 233.9-49.8 487.2-283.7 564.6-46.5 15.4-93.7 22.7-140.2 22.7z m0.1-857.7c-43.4 0-87.1 7-129.5 21C278.2 158 193.7 231 144.4 329 95.2 427 87 538.3 121.5 642.5c71.2 215 304 331.9 518.9 260.8 214.9-71.2 331.9-304 260.7-518.9-34.5-104.1-107.4-188.6-205.5-237.8-57.9-29.4-120.7-44.1-183.8-44.1z m-0.4 592.9c-100.4 0-182-81.7-182-182 0-100.4 81.7-182 182-182s182 81.7 182 182-81.6 182-182 182z m0-327.9c-80.4 0-145.8 65.4-145.8 145.8S431 659.1 511.4 659.1s145.8-65.4 145.8-145.8-65.4-145.8-145.8-145.8z" fill="#3D2C1F" p-id="3514"></path><path d="M352.1 814.8c-4.6 0-9.3-1.8-12.8-5.3l-42.4-42.4c-7.1-7.1-7.1-18.5 0-25.6 7.1-7.1 18.5-7.1 25.6 0l42.4 42.4c7.1 7.1 7.1 18.5 0 25.6-3.6 3.5-8.2 5.3-12.8 5.3zM200.2 736.4c-1.2 0-2.5-0.1-3.7-0.4-9.8-2-16.1-11.6-14-21.4l12.2-58.7c2-9.8 11.5-16.1 21.4-14 9.8 2 16.1 11.6 14 21.4L217.9 722c-1.8 8.5-9.3 14.4-17.7 14.4zM696.5 767.7c-4.6 0-9.3-1.8-12.8-5.3L641.3 720c-7.1-7.1-7.1-18.5 0-25.6 7.1-7.1 18.5-7.1 25.6 0l42.4 42.4c7.1 7.1 7.1 18.5 0 25.6-3.6 3.5-8.2 5.3-12.8 5.3zM459.6 755.9c-9.7 0-17.7-7.6-18.1-17.4-0.4-10 7.4-18.4 17.4-18.8l59.9-2.4c9.5-0.5 18.4 7.4 18.8 17.4s-7.4 18.4-17.4 18.8l-59.9 2.4h-0.7zM784.2 731.2c-5.6 0-11.2-2.6-14.7-7.5-5.9-8.1-4-19.4 4.1-25.3l48.6-35.1c8.1-5.9 19.4-4 25.3 4.1 5.9 8.1 4 19.4-4.1 25.3l-48.6 35.1c-3.2 2.3-6.9 3.4-10.6 3.4zM449.9 889.3c-3.8 0-7.7-1.2-11-3.7-7.9-6.1-9.5-17.4-3.4-25.4l36.4-47.7c6.1-7.9 17.4-9.4 25.4-3.4 7.9 6.1 9.5 17.4 3.4 25.4l-36.4 47.7c-3.6 4.7-9 7.1-14.4 7.1zM582 859.3c-3.8 0-7.7-1.2-11-3.7-7.9-6.1-9.5-17.4-3.4-25.4l36.4-47.7c6.1-7.9 17.4-9.4 25.4-3.4 7.9 6.1 9.5 17.4 3.4 25.4l-36.4 47.7c-3.6 4.7-9 7.1-14.4 7.1z" fill="#FFFFFF" p-id="3515"></path><path d="M511.5 83.1c-236.8 0-428.7 192-428.7 428.7v25c0 24.4 19.8 44.2 44.2 44.2 24.4 0 44.2-19.8 44.2-44.2v-33.7c0-24.4 19.8-44.2 44.2-44.2 24.4 0 44.2 19.8 44.2 44.2v103.7c0 24.4 19.8 44.2 44.2 44.2 24.4 0 44.2-19.8 44.2-44.2V506.5c2.8-87.9 74.9-158.3 163.5-158.3S672.2 418.6 675 506.5v100.3c0 24.4 19.8 44.2 44.2 44.2 24.4 0 44.2-19.8 44.2-44.2V503.1c0-24.4 19.8-44.2 44.2-44.2 24.4 0 44.2 19.8 44.2 44.2v33.7c0 24.4 19.8 44.2 44.2 44.2 24.4 0 44.2-19.8 44.2-44.2v-25c0-236.8-191.9-428.7-428.7-428.7z m0 0" fill="#E95655" p-id="3516"></path><path d="M175.7 446.3c-24.2 0-43.8 19.8-43.8 44.2v33.7c0 24.4-19.6 44.2-43.8 44.2-0.4 0-0.8-0.1-1.2-0.1 8 7.9 18.9 12.8 31 12.8 24.4 0 44.2-19.8 44.2-44.2v-33.7c0-24.4 19.8-44.2 44.2-44.2-7.9-7.9-18.7-12.7-30.6-12.7zM463 335.6c-87.8 0-159.2 70.4-162 158.3v100.3c0 24.3-19.4 43.9-43.3 44.2 8 7.8 18.9 12.7 31 12.7 24.4 0 44.2-19.8 44.2-44.2V506.5c2.8-87.9 74.9-158.3 163.5-158.3 13.8 0 27.1 1.9 40 5.1-22.2-11.3-47-17.7-73.4-17.7zM762.5 446.3c-24.2 0-43.8 19.8-43.8 44.2v103.7c0 23.1-17.6 41.8-39.9 43.8 8 8.1 19.1 13 31.3 13 24.4 0 44.2-19.8 44.2-44.2V503.1c0-22.7 17.2-41.2 39.3-43.7-7.9-8.1-18.9-13.1-31.1-13.1zM610.6 111.1c159.4 72.4 281.5 209 281.5 388.1v25c0 22.6-16.8 41-38.4 43.7 8 8.1 19.1 13.2 31.5 13.2 24.4 0 44.2-19.8 44.2-44.2v-25c0-192.3-128.9-351.9-318.8-400.8z" fill="#C51D37" p-id="3517"></path><path d="M719.2 669.1c-34.3 0-62.3-27.9-62.3-62.3V506.5c-2.5-78.4-66.4-140.2-145.4-140.2s-142.9 61.8-145.4 140.8v99.7c0 34.4-27.9 62.3-62.3 62.3-34.3 0-62.3-27.9-62.3-62.3V503.1c0-14.4-11.7-26.1-26.1-26.1-14.4 0-26.1 11.7-26.1 26.1v33.7c0 34.4-27.9 62.3-62.3 62.3-34.3 0-62.3-28-62.3-62.3v-24.9C64.7 265.5 265.1 65 511.5 65s446.8 200.4 446.8 446.8v24.9c0 34.4-27.9 62.3-62.3 62.3s-62.3-28-62.3-62.3V503c0-14.4-11.7-26.1-26.1-26.1s-26.1 11.7-26.1 26.1v103.7c0 34.4-27.9 62.4-62.3 62.4z m-207.7-339c98.7 0 178.5 77.2 181.6 175.8v100.9c0 14.4 11.7 26.1 26.1 26.1 14.4 0 26.1-11.7 26.1-26.1V503.1c0-34.4 27.9-62.3 62.3-62.3s62.3 27.9 62.3 62.3v33.7c0 14.4 11.7 26.1 26.1 26.1 14.4 0 26.1-11.7 26.1-26.1v-24.9c0-226.4-184.2-410.7-410.6-410.7-226.4 0-410.7 184.2-410.7 410.7v24.9c0 14.4 11.7 26.1 26.1 26.1 14.4 0 26.1-11.7 26.1-26.1v-33.7c0-34.4 27.9-62.3 62.3-62.3s62.3 27.9 62.3 62.3v103.7c0 14.4 11.7 26.1 26.1 26.1 14.4 0 26.1-11.7 26.1-26.1V506.5c3.2-99.2 83-176.4 181.7-176.4z" fill="#3D2C1F" p-id="3518"></path><path d="M189.3 384.5c-2.3 0-4.6-0.4-6.9-1.4-9.2-3.8-13.7-14.4-9.9-23.6 27.5-67.1 74-123.9 134.6-164.3 48.2-32.2 101.7-51.9 158.8-58.6 9.9-1.2 18.9 5.9 20.1 15.9 1.2 9.9-5.9 18.9-15.8 20.1-51.4 6.1-99.5 23.8-143 52.8-54.5 36.4-96.4 87.5-121.1 147.9-2.9 7-9.7 11.2-16.8 11.2z" fill="#FFFFFF" p-id="3519"></path><path d="M536.3 148.2m-18.7 0a18.7 18.7 0 1 0 37.4 0 18.7 18.7 0 1 0-37.4 0Z" fill="#FFFFFF" p-id="3520"></path></svg>