<?xml version="1.0" standalone="no"?><!DOCTYPE svg PUBLIC "-//W3C//DTD SVG 1.1//EN" "http://www.w3.org/Graphics/SVG/1.1/DTD/svg11.dtd"><svg t="1546135749241" class="icon" style="" viewBox="0 0 1024 1024" version="1.1" xmlns="http://www.w3.org/2000/svg" p-id="4189" xmlns:xlink="http://www.w3.org/1999/xlink" width="48" height="48"><defs><style type="text/css"></style></defs><path d="M512 992C246.896 992 32 777.104 32 512 32 246.896 246.896 32 512 32 777.104 32 992 246.896 992 512 992 777.104 777.104 992 512 992ZM728.832 295.168C716.704 283.04 697.024 283.04 684.896 295.168L512.896 467.168 340.864 295.136C328.784 283.056 309.2 283.056 297.12 295.136 285.056 307.216 285.056 326.8 297.12 338.88L469.168 510.912 297.104 682.96C284.976 695.088 284.976 714.752 297.104 726.896 309.248 739.024 328.912 739.024 341.04 726.896L513.088 554.832 683.2 724.944C695.28 737.008 714.848 737.008 726.928 724.944 739.008 712.864 739.008 693.28 726.928 681.2L556.832 511.104 728.832 339.104C740.96 326.976 740.96 307.296 728.832 295.168Z" p-id="4190" fill="#bfbfbf"></path></svg>