<svg xmlns="http://www.w3.org/2000/svg" viewBox="0 0 286.19 198.55"><defs><style>.cls-1,.cls-2{fill:none;stroke:#fff;stroke-linecap:round;stroke-miterlimit:10;stroke-width:4px;}.cls-1{fill-rule:evenodd;}</style></defs><title>资源 8</title><g id="图层_2" data-name="图层 2"><g id="内容"><path class="cls-1" d="M278.93,122.35V81.17A45.86,45.86,0,0,0,233.07,35.3H165V24.5A22.5,22.5,0,0,0,142.5,2H64.82a22.5,22.5,0,0,0-22.5,22.5V35.67A45.85,45.85,0,0,0,2,81.17v69.53a45.86,45.86,0,0,0,45.86,45.86H212.33"/><circle class="cls-2" cx="107.16" cy="112.42" r="61.35"/><path class="cls-1" d="M71.94,112.42A35.23,35.23,0,0,1,107.16,77.2"/><line class="cls-2" x1="200.06" y1="154.49" x2="284.19" y2="154.49"/><line class="cls-2" x1="242.12" y1="112.42" x2="242.12" y2="196.55"/></g></g></svg>