<svg xmlns="http://www.w3.org/2000/svg" viewBox="0 0 53 53"><defs><style>.cls-1{fill:#fff;}</style></defs><title>资源 9</title><g id="图层_2" data-name="图层 2"><g id="内容"><circle class="cls-1" cx="16.37" cy="17.93" r="2.53"/><circle class="cls-1" cx="26.48" cy="14.36" r="2.53"/><circle class="cls-1" cx="36.63" cy="17.93" r="2.53"/><path class="cls-1" d="M26.5,0A26.5,26.5,0,1,0,53,26.5,26.5,26.5,0,0,0,26.5,0Zm0,10a4.4,4.4,0,1,1-4.4,4.4A4.4,4.4,0,0,1,26.48,10ZM18.05,25.8H15a1.92,1.92,0,0,0-1.92,1.92V33A1.92,1.92,0,0,0,15,34.9h.84V43H14V36.63A3.8,3.8,0,0,1,11.26,33V27.72A3.8,3.8,0,0,1,15,23.93h3Zm-1.68-3.47a4.4,4.4,0,1,1,4.4-4.4A4.4,4.4,0,0,1,16.37,22.33ZM33,31.38a3.75,3.75,0,0,1-.27,1.38,3.82,3.82,0,0,1-1.45,1.78l-.13.08a3.76,3.76,0,0,1-.91.39v8H28.4V33.3h.85a1.94,1.94,0,0,0,1.92-1.92V24.16h0a1.92,1.92,0,0,0-1.92-1.91H23.71a1.92,1.92,0,0,0-1.91,1.89v7.25a1.94,1.94,0,0,0,1.92,1.92h.85V43H22.68V35a3.79,3.79,0,0,1-.91-.4l-.1-.06a3.82,3.82,0,0,1-1.48-1.8,3.75,3.75,0,0,1-.27-1.38V24.16c0-.08,0-.15,0-.22a3.75,3.75,0,0,1,.26-1.16,3.82,3.82,0,0,1,1.58-1.86,3.75,3.75,0,0,1,1.94-.54h5.54a3.75,3.75,0,0,1,1.94.54,3.82,3.82,0,0,1,1.58,1.86A3.75,3.75,0,0,1,33,23.93c0,.07,0,.15,0,.22Zm-.81-13.45a4.4,4.4,0,1,1,4.4,4.4A4.4,4.4,0,0,1,32.22,17.93ZM41.74,33A3.8,3.8,0,0,1,39,36.63V43H37.11V34.9H38A1.92,1.92,0,0,0,39.87,33V27.72A1.92,1.92,0,0,0,38,25.8H34.9V23.93H38a3.8,3.8,0,0,1,3.79,3.79Z"/></g></g></svg>