<svg xmlns="http://www.w3.org/2000/svg" viewBox="0 0 11.41 45.5"><defs><style>.cls-1{fill:#facc16;}</style></defs><title>资源 10</title><g id="图层_2" data-name="图层 2"><g id="浮窗"><path class="cls-1" d="M.09,39.54a4,4,0,0,1,1-2,6.05,6.05,0,0,1,4.64-1.92,6,6,0,0,1,4,1.33,4.78,4.78,0,0,1,1.7,3.78,4.61,4.61,0,0,1-1.57,3.37A5.37,5.37,0,0,1,6.07,45.5a6.45,6.45,0,0,1-4.42-1.45A4.62,4.62,0,0,1,.09,39.54ZM10.79.27,9.61,30.76a.26.26,0,0,1-.26.25H1.94a.26.26,0,0,1-.26-.25L.55.27A.26.26,0,0,1,.81,0h9.72A.26.26,0,0,1,10.79.27Z"/></g></g></svg>