<svg xmlns="http://www.w3.org/2000/svg" viewBox="0 0 125.31 104"><defs><style>.cls-1{isolation:isolate;}.cls-2{fill:#ccc;}.cls-3{fill:#fff;}.cls-16,.cls-4{fill:#ffcb37;}.cls-5,.cls-6{fill:#ff5252;}.cls-6{stroke:#f77b31;stroke-miterlimit:10;}.cls-7{fill:#dad9dd;}.cls-8{fill:#ccccce;}.cls-9{fill:#ebeaec;}.cls-10,.cls-17{fill:#a0391e;}.cls-11{fill:#84260d;}.cls-12{fill:#751d0c;}.cls-13{fill:#bc4c2e;}.cls-14{fill:#bcbcc1;}.cls-15{fill:#fcac1f;}.cls-16{mix-blend-mode:multiply;}.cls-17{font-size:19.92px;font-family:MicrosoftYaHei-Bold, Microsoft YaHei;font-weight:700;}</style></defs><title>资源 11</title><g class="cls-1"><g id="图层_2" data-name="图层 2"><g id="内容"><ellipse class="cls-2" cx="62.9" cy="52.07" rx="51.69" ry="51.76"/><path class="cls-3" d="M55.34,49.4A11.72,11.72,0,1,0,43.63,37.68,11.71,11.71,0,0,0,55.34,49.4Zm0-18.47a6.74,6.74,0,1,1-6.74,6.74A6.74,6.74,0,0,1,55.34,30.93Z"/><path class="cls-3" d="M42.88,72.65v-8a5.1,5.1,0,0,1,5.1-5.1H62.71a5.1,5.1,0,0,1,5.1,5.1v8a2.49,2.49,0,0,0,2.49,2.49h0a2.49,2.49,0,0,0,2.49-2.49v-8A10.11,10.11,0,0,0,62.71,54.53H48A10.11,10.11,0,0,0,37.91,64.61v8a2.49,2.49,0,0,0,2.49,2.49h0A2.49,2.49,0,0,0,42.88,72.65Z"/><path class="cls-3" d="M82,43v4.93H77.47A2.58,2.58,0,0,0,74.88,50a2.49,2.49,0,0,0,2.45,2.91H82v4.92a2.49,2.49,0,0,0,2.49,2.49h0A2.49,2.49,0,0,0,87,57.83V52.91h5.09a2.58,2.58,0,0,0,2.59-2.07,2.49,2.49,0,0,0-2.45-2.91H87V43a2.49,2.49,0,0,0-2.49-2.49h0A2.49,2.49,0,0,0,82,43Z"/><polygon class="cls-4" points="21.96 87.66 21.96 63.54 0 63.54 9.19 76.35 0 87.66 21.96 87.66"/><polygon class="cls-4" points="125.31 63.54 103.35 63.54 103.35 87.66 125.31 87.66 116.64 75.6 125.31 63.54"/><path class="cls-5" d="M114.59,52A51.94,51.94,0,1,1,62.66,0a52,52,0,0,1,51.94,52Zm0,0"/><path class="cls-6" d="M105.56,52A42.9,42.9,0,1,1,62.66,9a42.93,42.93,0,0,1,42.9,43Z"/><path class="cls-7" d="M81.9,63.3a98.32,98.32,0,0,1-24-29.5C49.88,19,41.89,6.07,19.1.4L76.69,68.48a43.56,43.56,0,0,0,5.2-5.18Zm0,0"/><path class="cls-8" d="M70.72,72.74a43.4,43.4,0,0,0,6-4.25L19.1.4c1.83,23.44,13.23,33.45,26.52,43.85a98.39,98.39,0,0,1,25.1,28.49Zm0,0"/><path class="cls-7" d="M48.5,68.54a43.62,43.62,0,0,1-5.16-5.06A98.34,98.34,0,0,0,67,33.76C75,18.86,82.82,5.88,105.56,0l-57,68.61-.09-.07Zm0,0"/><path class="cls-9" d="M54.6,72.81a43.38,43.38,0,0,1-6-4.2L105.56,0c-1.62,23.45-12.93,33.57-26.12,44.09A98.4,98.4,0,0,0,54.6,72.81Zm0,0"/><path class="cls-10" d="M102.7,89.71l-.29-.15a17.18,17.18,0,0,1-4.66-3.09c-2.24-2.14-5.18-5.06-8.09-8.29a5.87,5.87,0,0,1-1.43-2.91A7,7,0,0,1,81.45,81a5.86,5.86,0,0,1,2.63,1.89c2.7,3.41,5.09,6.79,6.83,9.36a17.18,17.18,0,0,1,2.27,5.11c.06.2.12.39.2.58a54.1,54.1,0,0,0,9.32-8.26Zm0,0"/><path class="cls-11" d="M95.14,90.61c-2.4-3.09-5.65-7.13-9.31-11.2A6.88,6.88,0,0,1,81.45,81a5.87,5.87,0,0,1,2.63,1.89c2.7,3.41,5.09,6.79,6.83,9.36A20.38,20.38,0,0,1,93.38,98q2.19-1.53,4.21-3.27a20.78,20.78,0,0,0-2.45-4.1Zm0,0"/><path class="cls-10" d="M37.13,75.48a5.88,5.88,0,0,1-1.41,3c-2.88,3.26-5.8,6.2-8,8.36a17.18,17.18,0,0,1-4.63,3.13l-.16.08a54.07,54.07,0,0,0,9.3,8.13c.06-.16.11-.32.15-.48a17.19,17.19,0,0,1,2.23-5.13c1.71-2.58,4.07-6,6.75-9.42A5.86,5.86,0,0,1,44,81.18a7.15,7.15,0,0,1-6.85-5.71Zm0,0"/><path class="cls-11" d="M30.65,90.5c2.42-2.82,5.58-6.66,8.66-10.87l.13-.19a7.1,7.1,0,0,1-2.31-4,5.88,5.88,0,0,1-1.41,3c-2.88,3.26-5.8,6.2-8,8.36a17.18,17.18,0,0,1-4.63,3.13l-.16.08a53.94,53.94,0,0,0,3.9,3.87,19.52,19.52,0,0,0,3.84-3.39Zm0,0"/><path class="cls-11" d="M89.65,78.19a5.87,5.87,0,0,1-1.43-2.91A7,7,0,0,1,81.45,81a5.87,5.87,0,0,1,2.63,1.89c1,1.24,1.93,2.48,2.81,3.67a6.49,6.49,0,0,0,5.91-5c-1-1.07-2.09-2.2-3.15-3.38Zm0,0"/><path class="cls-12" d="M90.69,85.05c-1.5-1.81-3.14-3.72-4.86-5.64h0A6.89,6.89,0,0,1,81.45,81a5.86,5.86,0,0,1,2.63,1.89c1,1.21,1.91,2.46,2.81,3.67a6.44,6.44,0,0,0,3.8-1.54Zm0,0"/><path class="cls-13" d="M102.7,89.71l-.29-.15a17.18,17.18,0,0,1-4.66-3.09,5.36,5.36,0,0,1-6.83,5.79h0a17.18,17.18,0,0,1,2.27,5.11c.06.2.12.39.2.58a54.07,54.07,0,0,0,9.32-8.26Zm0,0"/><path class="cls-10" d="M97.59,94.7a21.38,21.38,0,0,0-1.89-3.33,5.3,5.3,0,0,1-4.79.9h0A20.4,20.4,0,0,1,93.38,98c1.46-1,2.94-2.18,4.21-3.27Zm0,0"/><path class="cls-11" d="M37.13,75.48a5.88,5.88,0,0,1-1.41,3c-1,1.19-2.1,2.33-3.12,3.41a6.49,6.49,0,0,0,6,5c.87-1.2,1.8-2.45,2.78-3.7A5.87,5.87,0,0,1,44,81.18a7.14,7.14,0,0,1-6.85-5.7Zm0,0"/><path class="cls-12" d="M37.13,75.48a5.87,5.87,0,0,1-.43,1.43,5.93,5.93,0,0,1-1,1.53c-1,1.17-2.28,2.52-3.12,3.41a6.45,6.45,0,0,0,2.27,3.56c1.28-1.6,3.78-4.81,4.57-6a7.14,7.14,0,0,1-2.31-4Zm0,0"/><path class="cls-13" d="M27.7,86.8a17.18,17.18,0,0,1-4.63,3.13l-.16.08a54,54,0,0,0,9.3,8.13c.06-.16.11-.32.15-.48a17.21,17.21,0,0,1,2.23-5.13A5.36,5.36,0,0,1,27.7,86.8Zm0,0"/><path class="cls-10" d="M27.7,86.8A18,18,0,0,1,22.91,90a54.42,54.42,0,0,0,3.9,3.87,20.47,20.47,0,0,0,2.84-2.32A5.32,5.32,0,0,1,27.7,86.8Zm0,0"/><path class="cls-14" d="M54.59,42.35A9.83,9.83,0,0,1,46,44.51,98.28,98.28,0,0,1,70.72,72.74a43.4,43.4,0,0,0,6-4.25Zm0,0"/><path class="cls-8" d="M57.95,33.83a9.86,9.86,0,0,1-3.36,8.52L76.69,68.48a43.6,43.6,0,0,0,5.2-5.18,98.31,98.31,0,0,1-24-29.48Zm0,0"/><path class="cls-8" d="M66.86,34.07a98.25,98.25,0,0,1-23.52,29.4,43.69,43.69,0,0,0,5.16,5.06l.09.07L70.33,42.42a9.85,9.85,0,0,1-3.47-8.35Zm0,0"/><path class="cls-7" d="M70.33,42.42,48.59,68.61a43.38,43.38,0,0,0,6,4.2A98.21,98.21,0,0,1,78.94,44.5a9.83,9.83,0,0,1-8.61-2.07Zm0,0"/><path class="cls-4" d="M39.55,59.62a1.19,1.19,0,0,1,1.55.38A43.71,43.71,0,0,0,58.45,74.45a1.19,1.19,0,0,1,.66,1.45,13.74,13.74,0,0,1-6.63,8A1.18,1.18,0,0,1,51,83.5l0-.07a5.93,5.93,0,0,0-7.14-2.16,6.69,6.69,0,0,1-6.68-5.56,6,6,0,0,0-3.42-6.63l-.08,0a1.18,1.18,0,0,1-.66-1.43,13.75,13.75,0,0,1,6.62-8Zm0,0"/><path class="cls-15" d="M48.91,68.44A41.59,41.59,0,0,1,41.09,60a1.19,1.19,0,0,0-1.55-.38,13.75,13.75,0,0,0-6.62,8A1.18,1.18,0,0,0,33.59,69l.08,0a5.92,5.92,0,0,1,3.5,4.81,8.14,8.14,0,0,1,11.74-5.44Zm0,0"/><path class="cls-4" d="M85.66,59.41a1.19,1.19,0,0,0-1.55.4,43.7,43.7,0,0,1-17.22,14.6,1.19,1.19,0,0,0-.65,1.46,13.74,13.74,0,0,0,6.7,7.91,1.18,1.18,0,0,0,1.52-.4l0-.07a5.93,5.93,0,0,1,7.12-2.22,6.69,6.69,0,0,0,6.63-5.62,6,6,0,0,1,3.36-6.66l.08,0a1.18,1.18,0,0,0,.65-1.44,13.74,13.74,0,0,0-6.69-7.92Zm0,0"/><path class="cls-15" d="M76.39,68.3a41.45,41.45,0,0,1-9.5,6.11,1.19,1.19,0,0,0-.65,1.46,13.74,13.74,0,0,0,6.7,7.91,1.18,1.18,0,0,0,1.52-.4l0-.07a5.93,5.93,0,0,1,7.12-2.22,6.69,6.69,0,0,0,6.16-4A8.14,8.14,0,0,1,76.39,68.3Zm0,0"/><rect class="cls-16" x="8.66" y="64.01" width="107.98" height="22.99"/><rect class="cls-4" x="9.97" y="53.1" width="105.37" height="28.33"/><text class="cls-17" transform="translate(21.67 73.88) scale(1.04 1)">加入队伍</text></g></g></g></svg>