<svg xmlns="http://www.w3.org/2000/svg" viewBox="0 0 27.88 26.74"><defs><style>.cls-1{fill:#f77b31;}</style></defs><title>资源 9</title><g id="图层_2" data-name="图层 2"><g id="内容"><path class="cls-1" d="M16.1,1.57,17.83,6.9A2.27,2.27,0,0,0,20,8.47H25.6a2.27,2.27,0,0,1,1.34,4.11l-4.54,3.3a2.27,2.27,0,0,0-.83,2.54l1.73,5.33a2.27,2.27,0,0,1-3.5,2.54L15.27,23a2.27,2.27,0,0,0-2.67,0l-4.54,3.3a2.27,2.27,0,0,1-3.5-2.54L6.3,18.42a2.27,2.27,0,0,0-.83-2.54L.94,12.58A2.27,2.27,0,0,1,2.28,8.47H7.88A2.27,2.27,0,0,0,10,6.9l1.73-5.33A2.27,2.27,0,0,1,16.1,1.57Z"/></g></g></svg>