<svg xmlns="http://www.w3.org/2000/svg" xmlns:xlink="http://www.w3.org/1999/xlink" viewBox="0 0 623.14 28.49"><defs><style>.cls-1{isolation:isolate;}.cls-2,.cls-33{fill:#fff;}.cls-3,.cls-5{mix-blend-mode:overlay;}.cls-3{fill:url(#未命名的渐变_4);}.cls-4,.cls-6{mix-blend-mode:multiply;}.cls-4{fill:url(#未命名的渐变_93);}.cls-5{fill:none;stroke-miterlimit:10;opacity:0.42;stroke:url(#未命名的渐变_21);}.cls-7{fill:#ccc;}.cls-8{fill:#cecece;opacity:0.96;}.cls-9{fill:#d0d0d0;opacity:0.92;}.cls-10{fill:#d2d2d2;opacity:0.88;}.cls-11{fill:#d4d4d4;opacity:0.85;}.cls-12{fill:#d6d6d6;opacity:0.81;}.cls-13{fill:#d8d8d8;opacity:0.77;}.cls-14{fill:#dadada;opacity:0.73;}.cls-15{fill:#dcdcdc;opacity:0.69;}.cls-16{fill:#dedede;opacity:0.65;}.cls-17{fill:#e0e0e0;opacity:0.62;}.cls-18{fill:#e2e2e2;opacity:0.58;}.cls-19{fill:#e4e4e4;opacity:0.54;}.cls-20{fill:#e5e5e5;opacity:0.5;}.cls-21{fill:#e7e7e7;opacity:0.46;}.cls-22{fill:#e9e9e9;opacity:0.42;}.cls-23{fill:#ebebeb;opacity:0.38;}.cls-24{fill:#ededed;opacity:0.35;}.cls-25{fill:#efefef;opacity:0.31;}.cls-26{fill:#f1f1f1;opacity:0.27;}.cls-27{fill:#f3f3f3;opacity:0.23;}.cls-28{fill:#f5f5f5;opacity:0.19;}.cls-29{fill:#f7f7f7;opacity:0.15;}.cls-30{fill:#f9f9f9;opacity:0.12;}.cls-31{fill:#fbfbfb;opacity:0.08;}.cls-32{fill:#fdfdfd;opacity:0.04;}.cls-33{opacity:0;}</style><linearGradient id="未命名的渐变_4" x1="-3866.57" y1="29.72" x2="-3866.57" y2="-10.32" gradientTransform="matrix(-1, 0, 0, 1, -3555, 0)" gradientUnits="userSpaceOnUse"><stop offset="0" stop-color="#fff"/><stop offset="0.05" stop-color="#fff" stop-opacity="0.83"/><stop offset="0.1" stop-color="#fff" stop-opacity="0.66"/><stop offset="0.16" stop-color="#fff" stop-opacity="0.5"/><stop offset="0.22" stop-color="#fff" stop-opacity="0.36"/><stop offset="0.29" stop-color="#fff" stop-opacity="0.25"/><stop offset="0.37" stop-color="#fff" stop-opacity="0.16"/><stop offset="0.45" stop-color="#fff" stop-opacity="0.09"/><stop offset="0.56" stop-color="#fff" stop-opacity="0.04"/><stop offset="0.7" stop-color="#fff" stop-opacity="0.01"/><stop offset="1" stop-color="#fff" stop-opacity="0"/></linearGradient><linearGradient id="未命名的渐变_93" x1="-3866.57" y1="24.99" x2="-3866.57" y2="-15.05" gradientTransform="matrix(-1, 0, 0, 1, -3555, 0)" gradientUnits="userSpaceOnUse"><stop offset="0" stop-color="#fff" stop-opacity="0"/><stop offset="1"/></linearGradient><linearGradient id="未命名的渐变_21" x1="-3866.57" y1="28.49" x2="-3866.57" gradientTransform="matrix(-1, 0, 0, 1, -3555, 0)" gradientUnits="userSpaceOnUse"><stop offset="0" stop-color="#fff"/><stop offset="1" stop-color="#1b2434"/></linearGradient></defs><title>资源 11</title><g class="cls-1"><g id="图层_2" data-name="图层 2"><g id="内容"><path class="cls-2" d="M.5,16.46V12A11.54,11.54,0,0,1,12,.5H611.11A11.54,11.54,0,0,1,622.64,12v4.43A11.54,11.54,0,0,1,611.11,28H12A11.54,11.54,0,0,1,.5,16.46ZM12,5.82A6.22,6.22,0,0,0,5.82,12v4.43A6.22,6.22,0,0,0,12,22.67H611.11a6.22,6.22,0,0,0,6.21-6.21V12a6.22,6.22,0,0,0-6.21-6.21Z"/><path class="cls-3" d="M5.82,14.25v2.22A6.22,6.22,0,0,0,12,22.67H611.11a6.22,6.22,0,0,0,6.21-6.21V14.25h5.32v2.22A11.54,11.54,0,0,1,611.11,28H12A11.54,11.54,0,0,1,.5,16.46V14.25Z"/><path class="cls-4" d="M617.32,12a6.22,6.22,0,0,0-6.21-6.21H12A6.22,6.22,0,0,0,5.82,12v2.22H.5V12A11.54,11.54,0,0,1,12,.5H611.11A11.54,11.54,0,0,1,622.64,12v2.22h-5.32Z"/><rect class="cls-5" x="0.5" y="0.5" width="622.14" height="27.49" rx="11.53" ry="11.53"/><g class="cls-6"><rect class="cls-7" x="5.82" y="5.82" width="611.5" height="16.85" rx="6.21" ry="6.21"/><rect class="cls-8" x="5.89" y="5.89" width="611.36" height="16.71" rx="6.14" ry="6.14"/><rect class="cls-9" x="5.96" y="5.96" width="611.23" height="16.58" rx="6.07" ry="6.07"/><rect class="cls-10" x="6.03" y="6.03" width="611.09" height="16.44" rx="6" ry="6"/><rect class="cls-11" x="6.09" y="6.09" width="610.95" height="16.3" rx="5.93" ry="5.93"/><rect class="cls-12" x="6.16" y="6.16" width="610.82" height="16.17" rx="5.87" ry="5.87"/><rect class="cls-13" x="6.23" y="6.23" width="610.68" height="16.03" rx="5.8" ry="5.8"/><rect class="cls-14" x="6.3" y="6.3" width="610.54" height="15.89" rx="5.73" ry="5.73"/><rect class="cls-15" x="6.37" y="6.37" width="610.41" height="15.76" rx="5.66" ry="5.66"/><rect class="cls-16" x="6.43" y="6.44" width="610.27" height="15.62" rx="5.59" ry="5.59"/><rect class="cls-17" x="6.5" y="6.5" width="610.14" height="15.49" rx="5.53" ry="5.53"/><rect class="cls-18" x="6.57" y="6.57" width="610" height="15.35" rx="5.46" ry="5.46"/><rect class="cls-19" x="6.64" y="6.64" width="609.86" height="15.21" rx="5.39" ry="5.39"/><rect class="cls-20" x="6.71" y="6.71" width="609.73" height="15.08" rx="5.32" ry="5.32"/><rect class="cls-21" x="6.78" y="6.78" width="609.59" height="14.94" rx="5.25" ry="5.25"/><rect class="cls-22" x="6.84" y="6.84" width="609.45" height="14.8" rx="5.18" ry="5.18"/><rect class="cls-23" x="6.91" y="6.91" width="609.32" height="14.67" rx="5.12" ry="5.12"/><rect class="cls-24" x="6.98" y="6.98" width="609.18" height="14.53" rx="5.05" ry="5.05"/><rect class="cls-25" x="7.05" y="7.05" width="609.04" height="14.39" rx="4.98" ry="4.98"/><rect class="cls-26" x="7.12" y="7.12" width="608.91" height="14.26" rx="4.91" ry="4.91"/><rect class="cls-27" x="7.19" y="7.19" width="608.77" height="14.12" rx="4.84" ry="4.84"/><rect class="cls-28" x="7.25" y="7.25" width="608.63" height="13.98" rx="4.78" ry="4.78"/><rect class="cls-29" x="7.32" y="7.32" width="608.5" height="13.85" rx="4.71" ry="4.71"/><rect class="cls-30" x="7.39" y="7.39" width="608.36" height="13.71" rx="4.64" ry="4.64"/><rect class="cls-31" x="7.46" y="7.46" width="608.23" height="13.58" rx="4.57" ry="4.57"/><rect class="cls-32" x="7.53" y="7.53" width="608.09" height="13.44" rx="4.5" ry="4.5"/><rect class="cls-33" x="7.59" y="7.59" width="607.95" height="13.3" rx="4.43" ry="4.43"/></g></g></g></g></svg>