<svg xmlns="http://www.w3.org/2000/svg" viewBox="0 0 32.06 32.06"><defs><style>.cls-1{fill:#999;}</style></defs><title>资源 14</title><g id="图层_2" data-name="图层 2"><g id="内容"><rect class="cls-1" x="2.47" y="6.2" width="18.95" height="11.51" transform="translate(-4.95 11.98) rotate(-45.1)"/><rect class="cls-1" x="6.49" y="6.2" width="10.91" height="11.51" transform="translate(-4.95 11.97) rotate(-45.09)"/><rect class="cls-1" x="2.47" y="6.2" width="18.95" height="11.51" transform="translate(-4.95 11.98) rotate(-45.1)"/><rect class="cls-1" x="6.49" y="6.2" width="10.91" height="11.51" transform="translate(-4.95 11.97) rotate(-45.09)"/><path class="cls-1" d="M23.57,10.52a1.1,1.1,0,0,1-1.55,0L13.35,1.88a1.1,1.1,0,0,1,0-1.55h0a1.1,1.1,0,0,1,1.55,0L23.57,9a1.1,1.1,0,0,1,0,1.55Z"/><path class="cls-1" d="M.32,13.39a1.1,1.1,0,0,1,1.55,0L10.54,22a1.1,1.1,0,0,1,0,1.55h0a1.1,1.1,0,0,1-1.55,0L.32,14.94a1.1,1.1,0,0,1,0-1.55Z"/><rect class="cls-1" x="20.84" y="13.11" width="4.39" height="19.87" transform="translate(-9.55 23.04) rotate(-45)"/><rect class="cls-1" x="22.96" y="18.51" width="5.8" height="14.72" rx="2.55" ry="2.55" transform="translate(-10.72 25.86) rotate(-45)"/></g></g></svg>