<svg xmlns="http://www.w3.org/2000/svg" viewBox="0 0 78.68 78.68"><defs><style>.cls-1{isolation:isolate;}.cls-2,.cls-4,.cls-46{fill:#fff;}.cls-3,.cls-46,.cls-47,.cls-48,.cls-49,.cls-50,.cls-51,.cls-52,.cls-53,.cls-54,.cls-55,.cls-56,.cls-57,.cls-58,.cls-59,.cls-60,.cls-61,.cls-62,.cls-63,.cls-64,.cls-65,.cls-66,.cls-67{mix-blend-mode:multiply;}.cls-4,.cls-46{opacity:0;}.cls-5{fill:#f3f3f3;}.cls-47,.cls-5{opacity:0.05;}.cls-6{fill:#e7e7e7;}.cls-48,.cls-6{opacity:0.1;}.cls-7{fill:#dbdbdb;}.cls-49,.cls-7{opacity:0.14;}.cls-8{fill:#cecece;}.cls-50,.cls-8{opacity:0.19;}.cls-9{fill:#c2c2c2;}.cls-51,.cls-9{opacity:0.24;}.cls-10{fill:#b6b6b6;}.cls-10,.cls-52{opacity:0.29;}.cls-11{fill:#aaa;}.cls-11,.cls-53{opacity:0.33;}.cls-12{fill:#9e9e9e;}.cls-12,.cls-54{opacity:0.38;}.cls-13{fill:#929292;}.cls-13,.cls-55{opacity:0.43;}.cls-14{fill:#868686;}.cls-14,.cls-56{opacity:0.48;}.cls-15{fill:#797979;}.cls-15,.cls-57{opacity:0.52;}.cls-16{fill:#6d6d6d;}.cls-16,.cls-58{opacity:0.57;}.cls-17{fill:#616161;}.cls-17,.cls-59{opacity:0.62;}.cls-18{fill:#555;}.cls-18,.cls-60{opacity:0.67;}.cls-19{fill:#494949;}.cls-19,.cls-61{opacity:0.71;}.cls-20{fill:#3d3d3d;}.cls-20,.cls-62{opacity:0.76;}.cls-21{fill:#313131;}.cls-21,.cls-63{opacity:0.81;}.cls-22{fill:#242424;}.cls-22,.cls-64{opacity:0.86;}.cls-23{fill:#181818;}.cls-23,.cls-65{opacity:0.9;}.cls-24{fill:#0c0c0c;}.cls-24,.cls-66{opacity:0.95;}.cls-25{fill:#facc16;}.cls-26{fill:#face21;}.cls-27{fill:#fad12c;}.cls-28{fill:#fbd337;}.cls-29{fill:#fbd642;}.cls-30{fill:#fbd84d;}.cls-31{fill:#fbdb59;}.cls-32{fill:#fcdd64;}.cls-33{fill:#fcdf6f;}.cls-34{fill:#fce27a;}.cls-35{fill:#fce485;}.cls-36{fill:#fde790;}.cls-37{fill:#fde99b;}.cls-38{fill:#fdeca6;}.cls-39{fill:#fdeeb1;}.cls-40{fill:#fef0bc;}.cls-41{fill:#fef3c8;}.cls-42{fill:#fef5d3;}.cls-43{fill:#fef8de;}.cls-44{fill:#fffae9;}.cls-45{fill:#fffdf4;}.cls-47{fill:#fffbf4;}.cls-48{fill:#fff7ea;}.cls-49{fill:#fff3df;}.cls-50{fill:#feefd4;}.cls-51{fill:#feebca;}.cls-52{fill:#fee7bf;}.cls-53{fill:#fee3b4;}.cls-54{fill:#fedfaa;}.cls-55{fill:#fedb9f;}.cls-56{fill:#fed794;}.cls-57{fill:#fdd48a;}.cls-58{fill:#fdd07f;}.cls-59{fill:#fdcc74;}.cls-60{fill:#fdc86a;}.cls-61{fill:#fdc45f;}.cls-62{fill:#fdc054;}.cls-63{fill:#fdbc4a;}.cls-64{fill:#fcb83f;}.cls-65{fill:#fcb434;}.cls-66{fill:#fcb02a;}.cls-67,.cls-77{fill:#fcac1f;}.cls-68{fill:#dad9dd;}.cls-69{fill:#ccccce;}.cls-70{fill:#ebeaec;}.cls-71{fill:#a0391e;}.cls-72{fill:#84260d;}.cls-73{fill:#751d0c;}.cls-74{fill:#bc4c2e;}.cls-75{fill:#bcbcc1;}.cls-76{fill:#ffcb37;}</style></defs><title>资源 9</title><g class="cls-1"><g id="图层_2" data-name="图层 2"><g id="内容"><circle class="cls-2" cx="39.34" cy="39.34" r="39.34"/><g class="cls-3"><circle class="cls-4" cx="39.34" cy="42.81" r="35.87"/><circle class="cls-5" cx="39.34" cy="42.61" r="35.46"/><circle class="cls-6" cx="39.34" cy="42.41" r="35.05"/><circle class="cls-7" cx="39.34" cy="42.2" r="34.63"/><circle class="cls-8" cx="39.34" cy="42" r="34.22"/><circle class="cls-9" cx="39.34" cy="41.8" r="33.81"/><circle class="cls-10" cx="39.34" cy="41.6" r="33.4"/><circle class="cls-11" cx="39.34" cy="41.4" r="32.99"/><circle class="cls-12" cx="39.34" cy="41.19" r="32.57"/><circle class="cls-13" cx="39.34" cy="40.99" r="32.16"/><circle class="cls-14" cx="39.34" cy="40.79" r="31.75"/><circle class="cls-15" cx="39.34" cy="40.59" r="31.34"/><circle class="cls-16" cx="39.34" cy="40.39" r="30.92"/><circle class="cls-17" cx="39.34" cy="40.18" r="30.51"/><circle class="cls-18" cx="39.34" cy="39.98" r="30.1"/><circle class="cls-19" cx="39.34" cy="39.78" r="29.69"/><circle class="cls-20" cx="39.34" cy="39.58" r="29.27"/><circle class="cls-21" cx="39.34" cy="39.38" r="28.86"/><circle class="cls-22" cx="39.34" cy="39.17" r="28.45"/><circle class="cls-23" cx="39.34" cy="38.97" r="28.04"/><circle class="cls-24" cx="39.34" cy="38.77" r="27.62"/><circle cx="39.34" cy="38.57" r="27.21"/></g><circle class="cls-25" cx="39.34" cy="38.57" r="30.98"/><g class="cls-3"><circle class="cls-25" cx="39.34" cy="38.57" r="28.29"/><circle class="cls-26" cx="39.34" cy="38.57" r="28.15"/><circle class="cls-27" cx="39.34" cy="38.57" r="28"/><circle class="cls-28" cx="39.34" cy="38.57" r="27.85"/><circle class="cls-29" cx="39.34" cy="38.57" r="27.7"/><circle class="cls-30" cx="39.34" cy="38.57" r="27.55"/><circle class="cls-31" cx="39.34" cy="38.57" r="27.4"/><circle class="cls-32" cx="39.34" cy="38.57" r="27.25"/><circle class="cls-33" cx="39.34" cy="38.57" r="27.1"/><circle class="cls-34" cx="39.34" cy="38.57" r="26.95"/><circle class="cls-35" cx="39.34" cy="38.57" r="26.81"/><circle class="cls-36" cx="39.34" cy="38.57" r="26.66"/><circle class="cls-37" cx="39.34" cy="38.57" r="26.51"/><circle class="cls-38" cx="39.34" cy="38.57" r="26.36"/><circle class="cls-39" cx="39.34" cy="38.57" r="26.21"/><circle class="cls-40" cx="39.34" cy="38.57" r="26.06"/><circle class="cls-41" cx="39.34" cy="38.57" r="25.91"/><circle class="cls-42" cx="39.34" cy="38.57" r="25.76"/><circle class="cls-43" cx="39.34" cy="38.57" r="25.61"/><circle class="cls-44" cx="39.34" cy="38.57" r="25.47"/><circle class="cls-45" cx="39.34" cy="38.57" r="25.32"/><circle class="cls-2" cx="39.34" cy="38.57" r="25.17"/></g><path class="cls-46" d="M62.89,63.83c-1-1-2.33-2.27-3.68-3.68l-.35-.37c-.43-.46-.86-.92-1.3-1.41a3.86,3.86,0,0,1-.92-1.85,3.91,3.91,0,0,1,2.22-4.33l.05,0a.78.78,0,0,0,.43-.95A9,9,0,0,0,54.93,46a.78.78,0,0,0-1,.26,23.72,23.72,0,0,1-1.64,2.15l-.65-.54c-.87-.73-1.9-1.65-3.06-2.8l-.65-.66-.31-.31c-.84-.87-1.73-1.84-2.65-2.91l.56-.56.32-.32L47,39.28l.37-.34,1.17-1,.42-.37,1.21-1,.72-.6C59.52,29,67,22.35,68,6.92c-15,3.87-20.14,12.41-25.35,22.22l-.35.64c-.27.49-.54,1-.81,1.46l-.24.41c-.28.48-.57,1-.85,1.43l-.21.33-.52.81c-1-1.55-2-3.21-3-5l0,0c-5.3-9.76-10.56-18.26-25.55-22L34.48,34.79h0L11.13,7.18c1.21,15.43,8.71,22,17.45,28.86l.71.57,1.15.94.48.41,1.13,1,.42.38,1.1,1,.34.33.61.59-.64.76-.07.08-1,1.08,0,0-1,1,0,0-.9.92h0l-.89.88-.07.07-.77.72L29,47l-.6.54-.34.3-.36.31-.44.37L27,48.18l-.27-.31c-.39-.48-.75-1-1.08-1.46a.78.78,0,0,0-1-.25,9,9,0,0,0-4.36,5.26.78.78,0,0,0,.44.94l.05,0a3.94,3.94,0,0,1,.56.31l.16.11a3.89,3.89,0,0,1,.33.27l.15.14a3.85,3.85,0,0,1,.3.34l.1.12a3.9,3.9,0,0,1,.29.48l.09.2c0,.11.09.22.13.33l.07.24c0,.11.05.22.07.33s0,.16,0,.24a3.92,3.92,0,0,1,0,1.17,3.87,3.87,0,0,1-.09.4c0,.08-.06.16-.09.24s-.06.16-.09.23a4,4,0,0,1-.21.4l-.06.11a3.88,3.88,0,0,1-.36.48c-.42.48-.85.94-1.27,1.4l-.4.43C19.08,61.77,17.82,63,16.79,64a9.49,9.49,0,0,1-.73.63l-.32.23c-.16.12-.33.24-.49.35l0,0c-.51.32-1,.6-1.58.88q.64.7,1.31,1.36c.22.22.46.43.69.65l.57.54h0a35.66,35.66,0,0,0,3.55,2.81h0c0-.1.07-.21.1-.32a11.33,11.33,0,0,1,1.47-3.38c.8-1.2,1.81-2.67,3-4.23l.34-.46c.37-.5.75-1,1.15-1.51a3.91,3.91,0,0,1,6.3.21l0,0a.78.78,0,0,0,1,.26,9,9,0,0,0,4.36-5.25.79.79,0,0,0-.43-1,23.7,23.7,0,0,1-2.43-1.27l.3-.53.18-.32.29-.49.29-.48.25-.41.41-.64.21-.32.53-.79.16-.24.62-.88.16-.22.69-.93.17-.23.76-1,.14-.18.06.08.84,1.06.11.15.76,1,.11.15.68.94.13.19.58.84.14.22.49.75.18.29.37.59.3.5.18.3.3.53-.24.14-.57.34q-.8.44-1.61.8a.78.78,0,0,0-.43,1,9,9,0,0,0,4.41,5.21.78.78,0,0,0,1-.26l0,0a3.9,3.9,0,0,1,4.63-1.48,3.86,3.86,0,0,1,1.67,1.22c.4.5.78,1,1.15,1.49l.36.47.16.21c1.09,1.46,2.06,2.85,2.83,4,.16.23.3.48.44.72l.1.2q.15.29.29.58l.08.18c.1.23.19.46.27.7l.08.23c.08.25.16.49.23.75l0,.13.08.25c.51-.36,1-.73,1.51-1.12l.68-.56.58-.47h0A35.55,35.55,0,0,0,66.14,66l-.19-.1A11.31,11.31,0,0,1,62.89,63.83Z"/><path class="cls-47" d="M62.89,63.65c-1-1-2.33-2.27-3.68-3.68l-.35-.37c-.43-.46-.86-.92-1.3-1.41a3.86,3.86,0,0,1-.92-1.85A3.92,3.92,0,0,1,58.86,52l.05,0a.78.78,0,0,0,.43-.95,9,9,0,0,0-4.4-5.21.78.78,0,0,0-1,.26,23.72,23.72,0,0,1-1.64,2.15l-.65-.54c-.87-.73-1.9-1.65-3.06-2.8l-.65-.66-.31-.31c-.84-.87-1.73-1.84-2.65-2.91l.56-.56.32-.32L47,39.1l.37-.34,1.17-1,.42-.37,1.21-1,.72-.6C59.52,28.83,67,22.17,68,6.74,53.06,10.61,47.89,19.15,42.67,29l-.35.64c-.27.49-.54,1-.81,1.46l-.24.41c-.28.48-.57,1-.85,1.43l-.21.33L39.7,34c-1-1.55-2-3.21-3-5l0,0c-5.3-9.76-10.56-18.26-25.55-22L34.48,34.61h0L11.13,7c1.21,15.43,8.71,22,17.45,28.86l.71.57,1.15.94.48.41,1.13,1,.42.38,1.1,1,.34.33.61.59-.64.76-.07.08-1,1.08,0,0-1,1,0,0-.9.92h0l-.89.88L30,46l-.77.72-.17.16-.6.54-.34.3-.36.31-.44.37L27,48l-.27-.31c-.39-.48-.75-1-1.08-1.46a.78.78,0,0,0-1-.25,9,9,0,0,0-4.36,5.26.78.78,0,0,0,.44.94l.05,0a3.94,3.94,0,0,1,.56.31l.16.11a3.89,3.89,0,0,1,.33.27l.15.14a3.85,3.85,0,0,1,.3.34l.1.12a3.9,3.9,0,0,1,.29.48l.09.2c0,.11.09.22.13.33l.07.24c0,.11.05.22.07.33s0,.16,0,.24a3.92,3.92,0,0,1,0,1.17,3.87,3.87,0,0,1-.09.4c0,.08-.06.16-.09.24s-.06.16-.09.23a4,4,0,0,1-.21.4l-.06.11a3.88,3.88,0,0,1-.36.48c-.42.48-.85.94-1.27,1.4l-.4.43c-1.32,1.41-2.58,2.68-3.61,3.68a9.49,9.49,0,0,1-.73.63l-.32.23c-.16.12-.33.24-.49.35l0,0c-.51.32-1,.6-1.58.88q.64.7,1.31,1.36c.22.22.46.43.69.65l.57.54h0a35.66,35.66,0,0,0,3.55,2.81h0c0-.1.07-.21.1-.32a11.33,11.33,0,0,1,1.47-3.38c.8-1.2,1.81-2.67,3-4.23l.34-.46c.37-.5.75-1,1.15-1.51a3.91,3.91,0,0,1,6.3.21l0,0a.77.77,0,0,0,1,.26,9,9,0,0,0,4.36-5.25.79.79,0,0,0-.43-1,23.7,23.7,0,0,1-2.43-1.27l.3-.53.18-.32.29-.49.29-.48.25-.41.41-.64.21-.32.53-.79.16-.24.62-.88.16-.22.69-.93.17-.23.76-1,.14-.18.06.08L40.66,48l.11.15.76,1,.11.15.68.94.13.19.58.84.14.22.49.75.18.29.37.59.3.5.18.3.3.53-.24.14-.57.34q-.8.44-1.61.8a.78.78,0,0,0-.43,1,9,9,0,0,0,4.41,5.21.78.78,0,0,0,1-.26l0,0a3.9,3.9,0,0,1,4.63-1.48,3.86,3.86,0,0,1,1.67,1.22c.4.5.78,1,1.15,1.49l.36.47.16.21c1.09,1.46,2.06,2.85,2.83,4,.16.23.3.48.44.72l.1.2q.15.29.29.58l.08.18c.1.23.19.46.27.7l.08.23c.08.25.16.49.23.75l0,.13.08.25c.51-.36,1-.73,1.51-1.12l.68-.56.58-.47h0a35.55,35.55,0,0,0,3.36-3.28l-.19-.1A11.31,11.31,0,0,1,62.89,63.65Z"/><path class="cls-48" d="M62.89,63.47c-1-1-2.33-2.27-3.68-3.68l-.35-.37C58.43,59,58,58.5,57.56,58a3.86,3.86,0,0,1-.92-1.85,3.92,3.92,0,0,1,2.22-4.33l.05,0a.78.78,0,0,0,.43-.95,9,9,0,0,0-4.4-5.21.78.78,0,0,0-1,.26,23.72,23.72,0,0,1-1.64,2.15l-.65-.54c-.87-.73-1.9-1.65-3.06-2.8l-.65-.66-.31-.31c-.84-.87-1.73-1.84-2.65-2.91l.56-.56.32-.32L47,38.92l.37-.34,1.17-1,.42-.37,1.21-1,.72-.6C59.52,28.65,67,22,68,6.56,53.06,10.43,47.89,19,42.67,28.78l-.35.64c-.27.49-.54,1-.81,1.46l-.24.41c-.28.48-.57,1-.85,1.43l-.21.33-.52.81c-1-1.55-2-3.21-3-5l0,0c-5.3-9.76-10.56-18.26-25.55-22L34.48,34.43h0L11.13,6.82c1.21,15.43,8.71,22,17.45,28.86l.71.57,1.15.94.48.41,1.13,1,.42.38,1.1,1,.34.33.61.59-.64.76-.07.08-1,1.08,0,0-1,1,0,0-.9.92h0l-.89.88-.07.07-.77.72-.17.16-.6.54-.34.3-.36.31-.44.37L27,47.82l-.27-.31c-.39-.48-.75-1-1.08-1.46a.78.78,0,0,0-1-.25,9,9,0,0,0-4.36,5.26.78.78,0,0,0,.44.94l.05,0a3.94,3.94,0,0,1,.56.31l.16.11a3.89,3.89,0,0,1,.33.27l.15.14a3.85,3.85,0,0,1,.3.34l.1.12a3.9,3.9,0,0,1,.29.48l.09.2c0,.11.09.22.13.33l.07.24c0,.11.05.22.07.33s0,.16,0,.24a3.92,3.92,0,0,1,0,1.17,3.87,3.87,0,0,1-.09.4c0,.08-.06.16-.09.24s-.06.16-.09.23a4,4,0,0,1-.21.4l-.06.11a3.88,3.88,0,0,1-.36.48c-.42.48-.85.94-1.27,1.4l-.4.43c-1.32,1.41-2.58,2.68-3.61,3.68a9.49,9.49,0,0,1-.73.63l-.32.23c-.16.12-.33.24-.49.35l0,0c-.51.32-1,.6-1.58.88q.64.7,1.31,1.36c.22.22.46.43.69.65l.57.54h0a35.66,35.66,0,0,0,3.55,2.81h0c0-.1.07-.21.1-.32a11.33,11.33,0,0,1,1.47-3.38c.8-1.2,1.81-2.67,3-4.23l.34-.46c.37-.5.75-1,1.15-1.51a3.91,3.91,0,0,1,6.3.21l0,0a.77.77,0,0,0,1,.26,9,9,0,0,0,4.36-5.25.79.79,0,0,0-.43-1,23.7,23.7,0,0,1-2.43-1.27l.3-.53.18-.32.29-.49.29-.48.25-.41.41-.64.21-.32.53-.79.16-.24.62-.88L38,49l.69-.93.17-.23.76-1,.14-.18.06.08.84,1.06.11.15.76,1,.11.15.68.94.13.19.58.84.14.22.49.75.18.29.37.59.3.5.18.3.3.53-.24.14-.57.34q-.8.44-1.61.8a.78.78,0,0,0-.43,1,9,9,0,0,0,4.41,5.21.78.78,0,0,0,1-.26l0,0a3.9,3.9,0,0,1,4.63-1.48,3.86,3.86,0,0,1,1.67,1.22c.4.5.78,1,1.15,1.49l.36.47.16.21c1.09,1.46,2.06,2.85,2.83,4,.16.23.3.48.44.72l.1.2q.15.29.29.58l.08.18c.1.23.19.46.27.7l.08.23c.08.25.16.49.23.75l0,.13L60,71c.51-.36,1-.73,1.51-1.12l.68-.56.58-.47h0a35.55,35.55,0,0,0,3.36-3.28L66,65.5A11.31,11.31,0,0,1,62.89,63.47Z"/><path class="cls-49" d="M62.89,63.29c-1-1-2.33-2.27-3.68-3.68l-.35-.37c-.43-.46-.86-.92-1.3-1.41A3.86,3.86,0,0,1,56.64,56a3.92,3.92,0,0,1,2.22-4.33l.05,0a.78.78,0,0,0,.43-.95,9,9,0,0,0-4.4-5.21.78.78,0,0,0-1,.26,23.72,23.72,0,0,1-1.64,2.15l-.65-.54c-.87-.73-1.9-1.65-3.06-2.8l-.65-.66-.31-.31c-.84-.87-1.73-1.84-2.65-2.91l.56-.56.32-.32L47,38.74l.37-.34,1.17-1,.42-.37,1.21-1,.72-.6C59.52,28.47,67,21.81,68,6.38c-15,3.87-20.14,12.41-25.35,22.22l-.35.64c-.27.49-.54,1-.81,1.46l-.24.41c-.28.48-.57,1-.85,1.43l-.21.33-.52.81c-1-1.55-2-3.21-3-5l0,0c-5.3-9.76-10.56-18.26-25.55-22L34.48,34.25h0L11.13,6.64c1.21,15.43,8.71,22,17.45,28.86l.71.57,1.15.94.48.41,1.13,1,.42.38,1.1,1,.34.33.61.59-.64.76-.07.08-1,1.08,0,0-1,1,0,0-.9.92h0l-.89.88L30,45.6l-.77.72-.17.16-.6.54-.34.3-.36.31-.44.37L27,47.64l-.27-.31c-.39-.48-.75-1-1.08-1.46a.78.78,0,0,0-1-.25,9,9,0,0,0-4.36,5.26.78.78,0,0,0,.44.94l.05,0a3.94,3.94,0,0,1,.56.31l.16.11a3.89,3.89,0,0,1,.33.27l.15.14a3.85,3.85,0,0,1,.3.34l.1.12a3.9,3.9,0,0,1,.29.48l.09.2c0,.11.09.22.13.33l.07.24c0,.11.05.22.07.33s0,.16,0,.24a3.92,3.92,0,0,1,0,1.17,3.87,3.87,0,0,1-.09.4c0,.08-.06.16-.09.24s-.06.16-.09.23a4,4,0,0,1-.21.4l-.06.11a3.88,3.88,0,0,1-.36.48c-.42.48-.85.94-1.27,1.4l-.4.43c-1.32,1.41-2.58,2.68-3.61,3.68a9.49,9.49,0,0,1-.73.63l-.32.23c-.16.12-.33.24-.49.35l0,0c-.51.32-1,.6-1.58.88q.64.7,1.31,1.36c.22.22.46.43.69.65l.57.54h0A35.66,35.66,0,0,0,19.76,71h0c0-.1.07-.21.1-.32a11.33,11.33,0,0,1,1.47-3.38c.8-1.2,1.81-2.67,3-4.23l.34-.46c.37-.5.75-1,1.15-1.51a3.91,3.91,0,0,1,6.3.21l0,0a.77.77,0,0,0,1,.26,9,9,0,0,0,4.36-5.25.79.79,0,0,0-.43-1,23.7,23.7,0,0,1-2.43-1.27l.3-.53.18-.32.29-.49.29-.48.25-.41.41-.64.21-.32.53-.79.16-.24.62-.88.16-.22.69-.93.17-.23.76-1,.14-.18.06.08.84,1.06.11.15.76,1,.11.15.68.94.13.19.58.84.14.22.49.75.18.29.37.59.3.5.18.3.3.53-.24.14-.57.34q-.8.44-1.61.8a.78.78,0,0,0-.43,1,9,9,0,0,0,4.41,5.21.78.78,0,0,0,1-.26l0,0a3.9,3.9,0,0,1,4.63-1.48,3.86,3.86,0,0,1,1.67,1.22c.4.5.78,1,1.15,1.49l.36.47.16.21c1.09,1.46,2.06,2.85,2.83,4,.16.23.3.48.44.72l.1.2q.15.29.29.58l.08.18c.1.23.19.46.27.7l.08.23c.08.25.16.49.23.75l0,.13.08.25c.51-.36,1-.73,1.51-1.12l.68-.56.58-.47h0a35.55,35.55,0,0,0,3.36-3.28l-.19-.1A11.31,11.31,0,0,1,62.89,63.29Z"/><path class="cls-50" d="M62.89,63.11c-1-1-2.33-2.27-3.68-3.68l-.35-.37c-.43-.46-.86-.92-1.3-1.41a3.86,3.86,0,0,1-.92-1.85,3.92,3.92,0,0,1,2.22-4.33l.05,0a.78.78,0,0,0,.43-.95,9,9,0,0,0-4.4-5.21.78.78,0,0,0-1,.26,23.72,23.72,0,0,1-1.64,2.15l-.65-.54c-.87-.73-1.9-1.65-3.06-2.8l-.65-.66-.31-.31c-.84-.87-1.73-1.84-2.65-2.91l.56-.56.32-.32L47,38.56l.37-.34,1.17-1,.42-.37,1.21-1,.72-.6C59.52,28.29,67,21.63,68,6.2c-15,3.87-20.14,12.41-25.35,22.22l-.35.64c-.27.49-.54,1-.81,1.46l-.24.41c-.28.48-.57,1-.85,1.43l-.21.33-.52.81c-1-1.55-2-3.21-3-5l0,0c-5.3-9.76-10.56-18.26-25.55-22L34.48,34.07h0L11.13,6.46c1.21,15.43,8.71,22,17.45,28.86l.71.57,1.15.94.48.41,1.13,1,.42.38,1.1,1,.34.33.61.59-.64.76-.07.08-1,1.08,0,0-1,1,0,0-.9.92h0l-.89.88-.07.07-.77.72-.17.16-.6.54-.34.3-.36.31-.44.37L27,47.46l-.27-.31c-.39-.48-.75-1-1.08-1.46a.78.78,0,0,0-1-.25,9,9,0,0,0-4.36,5.26.78.78,0,0,0,.44.94l.05,0a3.94,3.94,0,0,1,.56.31l.16.11a3.89,3.89,0,0,1,.33.27l.15.14a3.85,3.85,0,0,1,.3.34l.1.12a3.9,3.9,0,0,1,.29.48l.09.2c0,.11.09.22.13.33l.07.24c0,.11.05.22.07.33s0,.16,0,.24A3.92,3.92,0,0,1,23,56a3.87,3.87,0,0,1-.09.4c0,.08-.06.16-.09.24s-.06.16-.09.23a4,4,0,0,1-.21.4l-.06.11a3.88,3.88,0,0,1-.36.48c-.42.48-.85.94-1.27,1.4l-.4.43c-1.32,1.41-2.58,2.68-3.61,3.68a9.49,9.49,0,0,1-.73.63l-.32.23c-.16.12-.33.24-.49.35l0,0c-.51.32-1,.6-1.58.88q.64.7,1.31,1.36c.22.22.46.43.69.65l.57.54h0a35.66,35.66,0,0,0,3.55,2.81h0c0-.1.07-.21.1-.32a11.33,11.33,0,0,1,1.47-3.38c.8-1.2,1.81-2.67,3-4.23l.34-.46c.37-.5.75-1,1.15-1.51a3.91,3.91,0,0,1,6.3.21l0,0a.77.77,0,0,0,1,.26,9,9,0,0,0,4.36-5.25.79.79,0,0,0-.43-1,23.7,23.7,0,0,1-2.43-1.27l.3-.53.18-.32.29-.49.29-.48.25-.41.41-.64.21-.32.53-.79.16-.24.62-.88.16-.22.69-.93.17-.23.76-1,.14-.18.06.08.84,1.06.11.15.76,1,.11.15.68.94.13.19.58.84.14.22.49.75.18.29.37.59.3.5.18.3.3.53-.24.14-.57.34q-.8.44-1.61.8a.78.78,0,0,0-.43,1,9,9,0,0,0,4.41,5.21.78.78,0,0,0,1-.26l0,0a3.9,3.9,0,0,1,4.63-1.48,3.86,3.86,0,0,1,1.67,1.22c.4.5.78,1,1.15,1.49l.36.47.16.21c1.09,1.46,2.06,2.85,2.83,4,.16.23.3.48.44.72l.1.2q.15.29.29.58l.08.18c.1.23.19.46.27.7l.08.23c.08.25.16.49.23.75l0,.13.08.25c.51-.36,1-.73,1.51-1.12L62.2,69l.58-.47h0a35.55,35.55,0,0,0,3.36-3.28l-.19-.1A11.31,11.31,0,0,1,62.89,63.11Z"/><path class="cls-51" d="M62.89,62.93c-1-1-2.33-2.27-3.68-3.68l-.35-.37c-.43-.46-.86-.92-1.3-1.41a3.86,3.86,0,0,1-.92-1.85,3.92,3.92,0,0,1,2.22-4.33l.05,0a.78.78,0,0,0,.43-.95,9,9,0,0,0-4.4-5.21.78.78,0,0,0-1,.26,23.72,23.72,0,0,1-1.64,2.15L51.62,47c-.87-.73-1.9-1.65-3.06-2.8l-.65-.66-.31-.31c-.84-.87-1.73-1.84-2.65-2.91l.56-.56.32-.32L47,38.38l.37-.34,1.17-1,.42-.37,1.21-1,.72-.6C59.52,28.11,67,21.45,68,6c-15,3.87-20.14,12.41-25.35,22.22l-.35.64c-.27.49-.54,1-.81,1.46l-.24.41c-.28.48-.57,1-.85,1.43l-.21.33-.52.81c-1-1.55-2-3.21-3-5l0,0C31.38,18.5,26.13,10,11.13,6.28L34.48,33.89h0L11.13,6.28c1.21,15.43,8.71,22,17.45,28.86l.71.57,1.15.94.48.41,1.13,1,.42.38,1.1,1,.34.33.61.59-.64.76-.07.08-1,1.08,0,0-1,1,0,0-.9.92h0l-.89.88-.07.07-.77.72-.17.16-.6.54-.34.3-.36.31-.44.37L27,47.28,26.68,47c-.39-.48-.75-1-1.08-1.46a.78.78,0,0,0-1-.25,9,9,0,0,0-4.36,5.26.78.78,0,0,0,.44.94l.05,0a3.94,3.94,0,0,1,.56.31l.16.11a3.89,3.89,0,0,1,.33.27l.15.14a3.85,3.85,0,0,1,.3.34l.1.12a3.9,3.9,0,0,1,.29.48l.09.2c0,.11.09.22.13.33l.07.24c0,.11.05.22.07.33s0,.16,0,.24a3.92,3.92,0,0,1,0,1.17,3.87,3.87,0,0,1-.09.4c0,.08-.06.16-.09.24s-.06.16-.09.23a4,4,0,0,1-.21.4l-.06.11a3.88,3.88,0,0,1-.36.48c-.42.48-.85.94-1.27,1.4l-.4.43c-1.32,1.41-2.58,2.68-3.61,3.68a9.49,9.49,0,0,1-.73.63l-.32.23c-.16.12-.33.24-.49.35l0,0c-.51.32-1,.6-1.58.88q.64.7,1.31,1.36c.22.22.46.43.69.65l.57.54h0a35.66,35.66,0,0,0,3.55,2.81h0c0-.1.07-.21.1-.32a11.33,11.33,0,0,1,1.47-3.38c.8-1.2,1.81-2.67,3-4.23l.34-.46c.37-.5.75-1,1.15-1.51a3.91,3.91,0,0,1,6.3.21l0,0a.77.77,0,0,0,1,.26A9,9,0,0,0,37.46,56,.79.79,0,0,0,37,55a23.7,23.7,0,0,1-2.43-1.27l.3-.53.18-.32.29-.49.29-.48.25-.41.41-.64.21-.32.53-.79.16-.24.62-.88.16-.22.69-.93.17-.23.76-1,.14-.18.06.08.84,1.06.11.15.76,1,.11.15.68.94.13.19.58.84.14.22.49.75.18.29.37.59.3.5.18.3.3.53-.24.14-.57.34q-.8.44-1.61.8a.78.78,0,0,0-.43,1,9,9,0,0,0,4.41,5.21.78.78,0,0,0,1-.26l0,0a3.9,3.9,0,0,1,4.63-1.48,3.86,3.86,0,0,1,1.67,1.22c.4.5.78,1,1.15,1.49l.36.47.16.21c1.09,1.46,2.06,2.85,2.83,4,.16.23.3.48.44.72l.1.2q.15.29.29.58l.08.18c.1.23.19.46.27.7l.08.23c.08.25.16.49.23.75l0,.13.08.25c.51-.36,1-.73,1.51-1.12l.68-.56.58-.47h0a35.55,35.55,0,0,0,3.36-3.28L66,65A11.31,11.31,0,0,1,62.89,62.93Z"/><path class="cls-52" d="M62.89,62.75c-1-1-2.33-2.27-3.68-3.68l-.35-.37c-.43-.46-.86-.92-1.3-1.41a3.86,3.86,0,0,1-.92-1.85,3.92,3.92,0,0,1,2.22-4.33l.05,0a.78.78,0,0,0,.43-.95,9,9,0,0,0-4.4-5.21.78.78,0,0,0-1,.26,23.72,23.72,0,0,1-1.64,2.15l-.65-.54c-.87-.73-1.9-1.65-3.06-2.8l-.65-.66L47.59,43c-.84-.87-1.73-1.84-2.65-2.91l.56-.56.32-.32L47,38.2l.37-.34,1.17-1,.42-.37,1.21-1,.72-.6C59.52,27.93,67,21.27,68,5.84c-15,3.87-20.14,12.41-25.35,22.22l-.35.64c-.27.49-.54,1-.81,1.46l-.24.41c-.28.48-.57,1-.85,1.43l-.21.33-.52.81c-1-1.55-2-3.21-3-5l0,0c-5.3-9.76-10.56-18.26-25.55-22L34.48,33.71h0L11.13,6.1c1.21,15.43,8.71,22,17.45,28.86l.71.57,1.15.94.48.41,1.13,1,.42.38,1.1,1,.34.33.61.59-.64.76-.07.08-1,1.08,0,0-1,1,0,0-.9.92h0L30,45l-.07.07-.77.72-.17.16-.6.54-.34.3-.36.31-.44.37L27,47.1l-.27-.31c-.39-.48-.75-1-1.08-1.46a.78.78,0,0,0-1-.25,9,9,0,0,0-4.36,5.26.78.78,0,0,0,.44.94l.05,0a3.94,3.94,0,0,1,.56.31l.16.11a3.89,3.89,0,0,1,.33.27l.15.14a3.85,3.85,0,0,1,.3.34l.1.12a3.9,3.9,0,0,1,.29.48l.09.2c0,.11.09.22.13.33l.07.24c0,.11.05.22.07.33s0,.16,0,.24a3.92,3.92,0,0,1,0,1.17,3.87,3.87,0,0,1-.09.4c0,.08-.06.16-.09.24s-.06.16-.09.23a4,4,0,0,1-.21.4l-.06.11a3.88,3.88,0,0,1-.36.48c-.42.48-.85.94-1.27,1.4l-.4.43C19.08,60.69,17.82,62,16.79,63a9.49,9.49,0,0,1-.73.63l-.32.23c-.16.12-.33.24-.49.35l0,0c-.51.32-1,.6-1.58.88q.64.7,1.31,1.36c.22.22.46.43.69.65l.57.54h0a35.66,35.66,0,0,0,3.55,2.81h0c0-.1.07-.21.1-.32a11.33,11.33,0,0,1,1.47-3.38c.8-1.2,1.81-2.67,3-4.23l.34-.46c.37-.5.75-1,1.15-1.51a3.91,3.91,0,0,1,6.3.21l0,0a.77.77,0,0,0,1,.26,9,9,0,0,0,4.36-5.25.79.79,0,0,0-.43-1,23.7,23.7,0,0,1-2.43-1.27l.3-.53.18-.32.29-.49.29-.48.25-.41.41-.64.21-.32.53-.79.16-.24.62-.88.16-.22.69-.93.17-.23.76-1,.14-.18.06.08.84,1.06.11.15.76,1,.11.15.68.94.13.19.58.84.14.22.49.75.18.29.37.59.3.5.18.3.3.53-.24.14-.57.34q-.8.44-1.61.8a.78.78,0,0,0-.43,1A9,9,0,0,0,46.56,61a.78.78,0,0,0,1-.26l0,0a3.9,3.9,0,0,1,4.63-1.48,3.86,3.86,0,0,1,1.67,1.22c.4.5.78,1,1.15,1.49l.36.47.16.21c1.09,1.46,2.06,2.85,2.83,4,.16.23.3.48.44.72l.1.2q.15.29.29.58l.08.18c.1.23.19.46.27.7l.08.23c.08.25.16.49.23.75l0,.13.08.25c.51-.36,1-.73,1.51-1.12l.68-.56.58-.47h0a35.55,35.55,0,0,0,3.36-3.28l-.19-.1A11.31,11.31,0,0,1,62.89,62.75Z"/><path class="cls-53" d="M62.89,62.57c-1-1-2.33-2.27-3.68-3.68l-.35-.37c-.43-.46-.86-.92-1.3-1.41a3.86,3.86,0,0,1-.92-1.85,3.92,3.92,0,0,1,2.22-4.33l.05,0a.78.78,0,0,0,.43-.95,9,9,0,0,0-4.4-5.21.78.78,0,0,0-1,.26,23.72,23.72,0,0,1-1.64,2.15l-.65-.54c-.87-.73-1.9-1.65-3.06-2.8l-.65-.66-.31-.31c-.84-.87-1.73-1.84-2.65-2.91l.56-.56.32-.32L47,38l.37-.34,1.17-1,.42-.37,1.21-1,.72-.6C59.52,27.75,67,21.09,68,5.66c-15,3.87-20.14,12.41-25.35,22.22l-.35.64c-.27.49-.54,1-.81,1.46l-.24.41c-.28.48-.57,1-.85,1.43l-.21.33-.52.81c-1-1.55-2-3.21-3-5l0,0c-5.3-9.76-10.56-18.26-25.55-22L34.48,33.52h0L11.13,5.92c1.21,15.43,8.71,22,17.45,28.86l.71.57,1.15.94.48.41,1.13,1,.42.38,1.1,1,.34.33.61.59-.64.76-.07.08-1,1.08,0,0-1,1,0,0-.9.92h0l-.89.88-.07.07-.77.72-.17.16-.6.54-.34.3-.36.31-.44.37L27,46.92l-.27-.31c-.39-.48-.75-1-1.08-1.46a.78.78,0,0,0-1-.25,9,9,0,0,0-4.36,5.26.78.78,0,0,0,.44.94l.05,0a3.94,3.94,0,0,1,.56.31l.16.11a3.89,3.89,0,0,1,.33.27l.15.14a3.85,3.85,0,0,1,.3.34l.1.12a3.9,3.9,0,0,1,.29.48l.09.2c0,.11.09.22.13.33l.07.24c0,.11.05.22.07.33s0,.16,0,.24a3.92,3.92,0,0,1,0,1.17,3.87,3.87,0,0,1-.09.4c0,.08-.06.16-.09.24s-.06.16-.09.23a4,4,0,0,1-.21.4l-.06.11a3.88,3.88,0,0,1-.36.48c-.42.48-.85.94-1.27,1.4l-.4.43c-1.32,1.41-2.58,2.68-3.61,3.68a9.49,9.49,0,0,1-.73.63l-.32.23c-.16.12-.33.24-.49.35l0,0c-.51.32-1,.6-1.58.88q.64.7,1.31,1.36c.22.22.46.43.69.65l.57.54h0a35.66,35.66,0,0,0,3.55,2.81h0c0-.1.07-.21.1-.32a11.33,11.33,0,0,1,1.47-3.38c.8-1.2,1.81-2.67,3-4.23l.34-.46c.37-.5.75-1,1.15-1.51a3.91,3.91,0,0,1,6.3.21l0,0a.77.77,0,0,0,1,.26,9,9,0,0,0,4.36-5.25.79.79,0,0,0-.43-1,23.7,23.7,0,0,1-2.43-1.27l.3-.53.18-.32.29-.49.29-.48.25-.41.41-.64.21-.32.53-.79.16-.24.62-.88.16-.22.69-.93.17-.23.76-1,.14-.18.06.08.84,1.06.11.15.76,1,.11.15.68.94.13.19.58.84.14.22.49.75.18.29.37.59.3.5.18.3.3.53-.24.14-.57.34q-.8.44-1.61.8a.78.78,0,0,0-.43,1,9,9,0,0,0,4.41,5.21.78.78,0,0,0,1-.26l0,0A3.9,3.9,0,0,1,52.23,59a3.86,3.86,0,0,1,1.67,1.22c.4.5.78,1,1.15,1.49l.36.47.16.21c1.09,1.46,2.06,2.85,2.83,4,.16.23.3.48.44.72l.1.2q.15.29.29.58l.08.18c.1.23.19.46.27.7l.08.23c.08.25.16.49.23.75l0,.13.08.25c.51-.36,1-.73,1.51-1.12l.68-.56.58-.47h0a35.55,35.55,0,0,0,3.36-3.28L66,64.6A11.31,11.31,0,0,1,62.89,62.57Z"/><path class="cls-54" d="M62.89,62.39c-1-1-2.33-2.27-3.68-3.68l-.35-.37c-.43-.46-.86-.92-1.3-1.41a3.86,3.86,0,0,1-.92-1.85,3.92,3.92,0,0,1,2.22-4.33l.05,0a.78.78,0,0,0,.43-.95,9,9,0,0,0-4.4-5.21.78.78,0,0,0-1,.26A23.72,23.72,0,0,1,52.27,47l-.65-.54c-.87-.73-1.9-1.65-3.06-2.8L47.9,43l-.31-.31c-.84-.87-1.73-1.84-2.65-2.91l.56-.56.32-.32L47,37.83l.37-.34,1.17-1,.42-.37,1.21-1,.72-.6C59.52,27.57,67,20.91,68,5.48c-15,3.87-20.14,12.41-25.35,22.22l-.35.64c-.27.49-.54,1-.81,1.46l-.24.41c-.28.48-.57,1-.85,1.43l-.21.33-.52.81c-1-1.55-2-3.21-3-5l0,0C31.38,18,26.13,9.47,11.13,5.74L34.48,33.34h0L11.13,5.74c1.21,15.43,8.71,22,17.45,28.86l.71.57,1.15.94.48.41,1.13,1,.42.38,1.1,1,.34.33.61.59-.64.76-.07.08-1,1.08,0,0-1,1,0,0-.9.92h0l-.89.88L30,44.7l-.77.72-.17.16-.6.54-.34.3-.36.31-.44.37L27,46.74l-.27-.31c-.39-.48-.75-1-1.08-1.46a.78.78,0,0,0-1-.25A9,9,0,0,0,20.23,50a.78.78,0,0,0,.44.94l.05,0a3.94,3.94,0,0,1,.56.31l.16.11a3.89,3.89,0,0,1,.33.27l.15.14a3.85,3.85,0,0,1,.3.34l.1.12a3.9,3.9,0,0,1,.29.48l.09.2c0,.11.09.22.13.33l.07.24c0,.11.05.22.07.33s0,.16,0,.24a3.92,3.92,0,0,1,0,1.17,3.87,3.87,0,0,1-.09.4c0,.08-.06.16-.09.24s-.06.16-.09.23a4,4,0,0,1-.21.4l-.06.11a3.88,3.88,0,0,1-.36.48c-.42.48-.85.94-1.27,1.4l-.4.43c-1.32,1.41-2.58,2.68-3.61,3.68a9.49,9.49,0,0,1-.73.63l-.32.23c-.16.12-.33.24-.49.35l0,0c-.51.32-1,.6-1.58.88q.64.7,1.31,1.36c.22.22.46.43.69.65l.57.54h0a35.66,35.66,0,0,0,3.55,2.81h0c0-.1.07-.21.1-.32a11.33,11.33,0,0,1,1.47-3.38c.8-1.2,1.81-2.67,3-4.23l.34-.46c.37-.5.75-1,1.15-1.51a3.91,3.91,0,0,1,6.3.21l0,0a.77.77,0,0,0,1,.26,9,9,0,0,0,4.36-5.25.79.79,0,0,0-.43-1,23.7,23.7,0,0,1-2.43-1.27l.3-.53.18-.32.29-.49.29-.48.25-.41.41-.64.21-.32.53-.79.16-.24.62-.88.16-.22.69-.93.17-.23.76-1,.14-.18.06.08.84,1.06.11.15.76,1,.11.15.68.94.13.19L43,50l.14.22.49.75.18.29.37.59.3.5.18.3.3.53-.24.14-.57.34q-.8.44-1.61.8a.78.78,0,0,0-.43,1,9,9,0,0,0,4.41,5.21.78.78,0,0,0,1-.26l0,0a3.9,3.9,0,0,1,4.63-1.48A3.86,3.86,0,0,1,53.89,60c.4.5.78,1,1.15,1.49l.36.47.16.21c1.09,1.46,2.06,2.85,2.83,4,.16.23.3.48.44.72l.1.2q.15.29.29.58l.08.18c.1.23.19.46.27.7l.08.23c.08.25.16.49.23.75l0,.13L60,70c.51-.36,1-.73,1.51-1.12l.68-.56.58-.47h0a35.55,35.55,0,0,0,3.36-3.28l-.19-.1A11.31,11.31,0,0,1,62.89,62.39Z"/><path class="cls-55" d="M62.89,62.21c-1-1-2.33-2.27-3.68-3.68l-.35-.37c-.43-.46-.86-.92-1.3-1.41a3.86,3.86,0,0,1-.92-1.85,3.92,3.92,0,0,1,2.22-4.33l.05,0a.78.78,0,0,0,.43-.95,9,9,0,0,0-4.4-5.21.78.78,0,0,0-1,.26,23.72,23.72,0,0,1-1.64,2.15l-.65-.54c-.87-.73-1.9-1.65-3.06-2.8l-.65-.66-.31-.31c-.84-.87-1.73-1.84-2.65-2.91l.56-.56.32-.32L47,37.65l.37-.34,1.17-1,.42-.37,1.21-1,.72-.6C59.52,27.39,67,20.73,68,5.3c-15,3.87-20.14,12.41-25.35,22.22l-.35.64c-.27.49-.54,1-.81,1.46l-.24.41c-.28.48-.57,1-.85,1.43l-.21.33-.52.81c-1-1.55-2-3.21-3-5l0,0c-5.3-9.76-10.56-18.26-25.55-22L34.48,33.16h0L11.13,5.56c1.21,15.43,8.71,22,17.45,28.86l.71.57,1.15.94.48.41,1.13,1,.42.38,1.1,1,.34.33.61.59-.64.76-.07.08-1,1.08,0,0-1,1,0,0-.9.92h0l-.89.88-.07.07-.77.72-.17.16-.6.54-.34.3-.36.31-.44.37L27,46.56l-.27-.31c-.39-.48-.75-1-1.08-1.46a.78.78,0,0,0-1-.25,9,9,0,0,0-4.36,5.26.78.78,0,0,0,.44.94l.05,0a3.94,3.94,0,0,1,.56.31l.16.11a3.89,3.89,0,0,1,.33.27l.15.14a3.85,3.85,0,0,1,.3.34l.1.12a3.9,3.9,0,0,1,.29.48l.09.2c0,.11.09.22.13.33l.07.24c0,.11.05.22.07.33s0,.16,0,.24a3.92,3.92,0,0,1,0,1.17,3.87,3.87,0,0,1-.09.4c0,.08-.06.16-.09.24s-.06.16-.09.23a4,4,0,0,1-.21.4l-.06.11a3.88,3.88,0,0,1-.36.48c-.42.48-.85.94-1.27,1.4l-.4.43c-1.32,1.41-2.58,2.68-3.61,3.68a9.49,9.49,0,0,1-.73.63l-.32.23c-.16.12-.33.24-.49.35l0,0c-.51.32-1,.6-1.58.88q.64.7,1.31,1.36c.22.22.46.43.69.65l.57.54h0a35.66,35.66,0,0,0,3.55,2.81h0c0-.1.07-.21.1-.32a11.33,11.33,0,0,1,1.47-3.38c.8-1.2,1.81-2.67,3-4.23l.34-.46c.37-.5.75-1,1.15-1.51a3.91,3.91,0,0,1,6.3.21l0,0a.77.77,0,0,0,1,.26,9,9,0,0,0,4.36-5.25.79.79,0,0,0-.43-1A23.7,23.7,0,0,1,34.59,53l.3-.53.18-.32.29-.49.29-.48.25-.41.41-.64.21-.32.53-.79.16-.24.62-.88.16-.22.69-.93.17-.23.76-1,.14-.18.06.08.84,1.06.11.15.76,1,.11.15.68.94.13.19.58.84.14.22.49.75.18.29.37.59.3.5.18.3L45,53l-.24.14-.57.34q-.8.44-1.61.8a.78.78,0,0,0-.43,1,9,9,0,0,0,4.41,5.21.78.78,0,0,0,1-.26l0,0a3.9,3.9,0,0,1,4.63-1.48,3.86,3.86,0,0,1,1.67,1.22c.4.5.78,1,1.15,1.49l.36.47.16.21c1.09,1.46,2.06,2.85,2.83,4,.16.23.3.48.44.72l.1.2q.15.29.29.58l.08.18c.1.23.19.46.27.7l.08.23c.08.25.16.49.23.75l0,.13.08.25c.51-.36,1-.73,1.51-1.12l.68-.56.58-.47h0a35.55,35.55,0,0,0,3.36-3.28l-.19-.1A11.31,11.31,0,0,1,62.89,62.21Z"/><path class="cls-56" d="M62.89,62c-1-1-2.33-2.27-3.68-3.68L58.86,58c-.43-.46-.86-.92-1.3-1.41a3.86,3.86,0,0,1-.92-1.85,3.92,3.92,0,0,1,2.22-4.33l.05,0a.78.78,0,0,0,.43-.95,9,9,0,0,0-4.4-5.21.78.78,0,0,0-1,.26,23.72,23.72,0,0,1-1.64,2.15l-.65-.54c-.87-.73-1.9-1.65-3.06-2.8l-.65-.66-.31-.31c-.84-.87-1.73-1.84-2.65-2.91l.56-.56.32-.32L47,37.47l.37-.34,1.17-1,.42-.37,1.21-1,.72-.6C59.52,27.21,67,20.55,68,5.11,53.06,9,47.89,17.52,42.67,27.33l-.35.64c-.27.49-.54,1-.81,1.46l-.24.41c-.28.48-.57,1-.85,1.43l-.21.33-.52.81c-1-1.55-2-3.21-3-5l0,0c-5.3-9.76-10.56-18.26-25.55-22L34.48,33h0L11.13,5.38c1.21,15.43,8.71,22,17.45,28.86l.71.57,1.15.94.48.41,1.13,1,.42.38,1.1,1,.34.33.61.59-.64.76-.07.08-1,1.08,0,0-1,1,0,0-.9.92h0l-.89.88-.07.07-.77.72-.17.16-.6.54-.34.3-.36.31-.44.37L27,46.37l-.27-.31c-.39-.48-.75-1-1.08-1.46a.78.78,0,0,0-1-.25,9,9,0,0,0-4.36,5.26.78.78,0,0,0,.44.94l.05,0a3.94,3.94,0,0,1,.56.31l.16.11a3.89,3.89,0,0,1,.33.27l.15.14a3.85,3.85,0,0,1,.3.34l.1.12a3.9,3.9,0,0,1,.29.48l.09.2c0,.11.09.22.13.33l.07.24c0,.11.05.22.07.33s0,.16,0,.24a3.92,3.92,0,0,1,0,1.17,3.87,3.87,0,0,1-.09.4c0,.08-.06.16-.09.24s-.06.16-.09.23a4,4,0,0,1-.21.4l-.06.11a3.88,3.88,0,0,1-.36.48c-.42.48-.85.94-1.27,1.4l-.4.43c-1.32,1.41-2.58,2.68-3.61,3.68a9.49,9.49,0,0,1-.73.63l-.32.23c-.16.12-.33.24-.49.35l0,0c-.51.32-1,.6-1.58.88q.64.7,1.31,1.36c.22.22.46.43.69.65l.57.54h0a35.66,35.66,0,0,0,3.55,2.81h0c0-.1.07-.21.1-.32A11.33,11.33,0,0,1,21.32,66c.8-1.2,1.81-2.67,3-4.23l.34-.46c.37-.5.75-1,1.15-1.51a3.91,3.91,0,0,1,6.3.21l0,0a.77.77,0,0,0,1,.26,9,9,0,0,0,4.36-5.25.79.79,0,0,0-.43-1,23.7,23.7,0,0,1-2.43-1.27l.3-.53.18-.32.29-.49.29-.48.25-.41.41-.64.21-.32.53-.79.16-.24.62-.88.16-.22.69-.93.17-.23.76-1,.14-.18.06.08.84,1.06.11.15.76,1,.11.15.68.94.13.19.58.84.14.22.49.75.18.29.37.59.3.5.18.3.3.53-.24.14-.57.34q-.8.44-1.61.8a.78.78,0,0,0-.43,1,9,9,0,0,0,4.41,5.21.78.78,0,0,0,1-.26l0,0a3.9,3.9,0,0,1,4.63-1.48,3.86,3.86,0,0,1,1.67,1.22c.4.5.78,1,1.15,1.49l.36.47.16.21c1.09,1.46,2.06,2.85,2.83,4,.16.23.3.48.44.72l.1.2q.15.29.29.58l.08.18c.1.23.19.46.27.7l.08.23c.08.25.16.49.23.75l0,.13.08.25c.51-.36,1-.73,1.51-1.12l.68-.56.58-.47h0a35.55,35.55,0,0,0,3.36-3.28l-.19-.1A11.31,11.31,0,0,1,62.89,62Z"/><path class="cls-57" d="M62.89,61.85c-1-1-2.33-2.27-3.68-3.68l-.35-.37c-.43-.46-.86-.92-1.3-1.41a3.86,3.86,0,0,1-.92-1.85,3.92,3.92,0,0,1,2.22-4.33l.05,0a.78.78,0,0,0,.43-.95A9,9,0,0,0,54.93,44a.78.78,0,0,0-1,.26,23.72,23.72,0,0,1-1.64,2.15l-.65-.54c-.87-.73-1.9-1.65-3.06-2.8l-.65-.66-.31-.31c-.84-.87-1.73-1.84-2.65-2.91l.56-.56.32-.32L47,37.29l.37-.34,1.17-1,.42-.37,1.21-1,.72-.6C59.52,27,67,20.37,68,4.93c-15,3.87-20.14,12.41-25.35,22.22l-.35.64c-.27.49-.54,1-.81,1.46l-.24.41c-.28.48-.57,1-.85,1.43l-.21.33-.52.81c-1-1.55-2-3.21-3-5l0,0c-5.3-9.76-10.56-18.26-25.55-22L34.48,32.8h0L11.13,5.2c1.21,15.43,8.71,22,17.45,28.86l.71.57,1.15.94.48.41,1.13,1,.42.38,1.1,1,.34.33.61.59-.64.76-.07.08-1,1.08,0,0-1,1,0,0-.9.92h0l-.89.88-.07.07-.77.72L29,45l-.6.54-.34.3-.36.31-.44.37L27,46.19l-.27-.31c-.39-.48-.75-1-1.08-1.46a.78.78,0,0,0-1-.25,9,9,0,0,0-4.36,5.26.78.78,0,0,0,.44.94l.05,0a3.94,3.94,0,0,1,.56.31l.16.11a3.89,3.89,0,0,1,.33.27l.15.14a3.85,3.85,0,0,1,.3.34l.1.12a3.9,3.9,0,0,1,.29.48l.09.2c0,.11.09.22.13.33l.07.24c0,.11.05.22.07.33s0,.16,0,.24a3.92,3.92,0,0,1,0,1.17,3.87,3.87,0,0,1-.09.4c0,.08-.06.16-.09.24s-.06.16-.09.23a4,4,0,0,1-.21.4l-.06.11a3.88,3.88,0,0,1-.36.48c-.42.48-.85.94-1.27,1.4l-.4.43c-1.32,1.41-2.58,2.68-3.61,3.68a9.49,9.49,0,0,1-.73.63l-.32.23c-.16.12-.33.24-.49.35l0,0c-.51.32-1,.6-1.58.88q.64.7,1.31,1.36c.22.22.46.43.69.65l.57.54h0a35.66,35.66,0,0,0,3.55,2.81h0c0-.1.07-.21.1-.32a11.33,11.33,0,0,1,1.47-3.38c.8-1.2,1.81-2.67,3-4.23l.34-.46c.37-.5.75-1,1.15-1.51a3.91,3.91,0,0,1,6.3.21l0,0a.77.77,0,0,0,1,.26,9,9,0,0,0,4.36-5.25.79.79,0,0,0-.43-1,23.7,23.7,0,0,1-2.43-1.27l.3-.53.18-.32.29-.49.29-.48.25-.41.41-.64.21-.32.53-.79.16-.24.62-.88.16-.22.69-.93.17-.23.76-1,.14-.18.06.08.84,1.06.11.15.76,1,.11.15.68.94.13.19.58.84.14.22.49.75.18.29.37.59.3.5.18.3.3.53-.24.14-.57.34q-.8.44-1.61.8a.78.78,0,0,0-.43,1,9,9,0,0,0,4.41,5.21.78.78,0,0,0,1-.26l0,0a3.9,3.9,0,0,1,4.63-1.48,3.86,3.86,0,0,1,1.67,1.22c.4.5.78,1,1.15,1.49l.36.47.16.21c1.09,1.46,2.06,2.85,2.83,4,.16.23.3.48.44.72l.1.2q.15.29.29.58l.08.18c.1.23.19.46.27.7l.08.23c.08.25.16.49.23.75l0,.13.08.25c.51-.36,1-.73,1.51-1.12l.68-.56.58-.47h0A35.55,35.55,0,0,0,66.14,64l-.19-.1A11.31,11.31,0,0,1,62.89,61.85Z"/><path class="cls-58" d="M62.89,61.67c-1-1-2.33-2.27-3.68-3.68l-.35-.37c-.43-.46-.86-.92-1.3-1.41a3.86,3.86,0,0,1-.92-1.85A3.92,3.92,0,0,1,58.86,50l.05,0a.78.78,0,0,0,.43-.95,9,9,0,0,0-4.4-5.21.78.78,0,0,0-1,.26,23.72,23.72,0,0,1-1.64,2.15l-.65-.54c-.87-.73-1.9-1.65-3.06-2.8l-.65-.66L47.59,42c-.84-.87-1.73-1.84-2.65-2.91l.56-.56.32-.32L47,37.11l.37-.34,1.17-1,.42-.37,1.21-1,.72-.6C59.52,26.85,67,20.19,68,4.75,53.06,8.62,47.89,17.16,42.67,27l-.35.64c-.27.49-.54,1-.81,1.46l-.24.41c-.28.48-.57,1-.85,1.43l-.21.33L39.7,32c-1-1.55-2-3.21-3-5l0,0C31.38,17.24,26.13,8.75,11.13,5L34.48,32.62h0L11.13,5c1.21,15.43,8.71,22,17.45,28.86l.71.57,1.15.94.48.41,1.13,1,.42.38,1.1,1,.34.33.61.59-.64.76-.07.08-1,1.08,0,0-1,1,0,0-.9.92h0l-.89.88L30,44l-.77.72-.17.16-.6.54-.34.3-.36.31-.44.37L27,46l-.27-.31c-.39-.48-.75-1-1.08-1.46a.78.78,0,0,0-1-.25,9,9,0,0,0-4.36,5.26.78.78,0,0,0,.44.94l.05,0a3.94,3.94,0,0,1,.56.31l.16.11a3.89,3.89,0,0,1,.33.27l.15.14a3.85,3.85,0,0,1,.3.34l.1.12a3.9,3.9,0,0,1,.29.48l.09.2c0,.11.09.22.13.33l.07.24c0,.11.05.22.07.33s0,.16,0,.24a3.92,3.92,0,0,1,0,1.17,3.87,3.87,0,0,1-.09.4c0,.08-.06.16-.09.24s-.06.16-.09.23a4,4,0,0,1-.21.4l-.06.11a3.88,3.88,0,0,1-.36.48c-.42.48-.85.94-1.27,1.4l-.4.43c-1.32,1.41-2.58,2.68-3.61,3.68a9.49,9.49,0,0,1-.73.63l-.32.23c-.16.12-.33.24-.49.35l0,0c-.51.32-1,.6-1.58.88q.64.7,1.31,1.36c.22.22.46.43.69.65l.57.54h0a35.66,35.66,0,0,0,3.55,2.81h0c0-.1.07-.21.1-.32a11.33,11.33,0,0,1,1.47-3.38c.8-1.2,1.81-2.67,3-4.23l.34-.46c.37-.5.75-1,1.15-1.51a3.91,3.91,0,0,1,6.3.21l0,0a.77.77,0,0,0,1,.26,9,9,0,0,0,4.36-5.25.79.79,0,0,0-.43-1,23.7,23.7,0,0,1-2.43-1.27l.3-.53.18-.32.29-.49.29-.48.25-.41.41-.64.21-.32.53-.79.16-.24.62-.88.16-.22.69-.93.17-.23.76-1,.14-.18.06.08L40.66,46l.11.15.76,1,.11.15.68.94.13.19.58.84.14.22.49.75.18.29.37.59.3.5.18.3.3.53-.24.14-.57.34q-.8.44-1.61.8a.78.78,0,0,0-.43,1,9,9,0,0,0,4.41,5.21.78.78,0,0,0,1-.26l0,0a3.9,3.9,0,0,1,4.63-1.48,3.86,3.86,0,0,1,1.67,1.22c.4.5.78,1,1.15,1.49l.36.47.16.21c1.09,1.46,2.06,2.85,2.83,4,.16.23.3.48.44.72l.1.2q.15.29.29.58l.08.18c.1.23.19.46.27.7l.08.23c.08.25.16.49.23.75l0,.13.08.25c.51-.36,1-.73,1.51-1.12l.68-.56.58-.47h0a35.55,35.55,0,0,0,3.36-3.28L66,63.7A11.31,11.31,0,0,1,62.89,61.67Z"/><path class="cls-59" d="M62.89,61.49c-1-1-2.33-2.27-3.68-3.68l-.35-.37c-.43-.46-.86-.92-1.3-1.41a3.86,3.86,0,0,1-.92-1.85,3.92,3.92,0,0,1,2.22-4.33l.05,0a.78.78,0,0,0,.43-.95,9,9,0,0,0-4.4-5.21.78.78,0,0,0-1,.26,23.72,23.72,0,0,1-1.64,2.15l-.65-.54c-.87-.73-1.9-1.65-3.06-2.8l-.65-.66-.31-.31c-.84-.87-1.73-1.84-2.65-2.91l.56-.56.32-.32L47,36.93l.37-.34,1.17-1,.42-.37,1.21-1,.72-.6C59.52,26.67,67,20,68,4.57,53.06,8.44,47.89,17,42.67,26.79l-.35.64c-.27.49-.54,1-.81,1.46l-.24.41c-.28.48-.57,1-.85,1.43l-.21.33-.52.81c-1-1.55-2-3.21-3-5l0,0c-5.3-9.76-10.56-18.26-25.55-22L34.48,32.44h0L11.13,4.83c1.21,15.43,8.71,22,17.45,28.86l.71.57,1.15.94.48.41,1.13,1,.42.38,1.1,1,.34.33.61.59-.64.76-.07.08-1,1.08,0,0-1,1,0,0-.9.92h0l-.89.88-.07.07-.77.72-.17.16-.6.54-.34.3-.36.31-.44.37L27,45.83l-.27-.31c-.39-.48-.75-1-1.08-1.46a.78.78,0,0,0-1-.25,9,9,0,0,0-4.36,5.26.78.78,0,0,0,.44.94l.05,0a3.94,3.94,0,0,1,.56.31l.16.11a3.89,3.89,0,0,1,.33.27l.15.14a3.85,3.85,0,0,1,.3.34l.1.12a3.9,3.9,0,0,1,.29.48l.09.2c0,.11.09.22.13.33l.07.24c0,.11.05.22.07.33s0,.16,0,.24a3.92,3.92,0,0,1,0,1.17,3.87,3.87,0,0,1-.09.4c0,.08-.06.16-.09.24s-.06.16-.09.23a4,4,0,0,1-.21.4l-.06.11a3.88,3.88,0,0,1-.36.48c-.42.48-.85.94-1.27,1.4l-.4.43c-1.32,1.41-2.58,2.68-3.61,3.68a9.49,9.49,0,0,1-.73.63l-.32.23c-.16.12-.33.24-.49.35l0,0c-.51.32-1,.6-1.58.88q.64.7,1.31,1.36c.22.22.46.43.69.65l.57.54h0a35.66,35.66,0,0,0,3.55,2.81h0c0-.1.07-.21.1-.32a11.33,11.33,0,0,1,1.47-3.38c.8-1.2,1.81-2.67,3-4.23l.34-.46c.37-.5.75-1,1.15-1.51a3.91,3.91,0,0,1,6.3.21l0,0a.77.77,0,0,0,1,.26,9,9,0,0,0,4.36-5.25.79.79,0,0,0-.43-1,23.7,23.7,0,0,1-2.43-1.27l.3-.53.18-.32.29-.49.29-.48.25-.41.41-.64.21-.32.53-.79.16-.24.62-.88L38,47l.69-.93.17-.23.76-1,.14-.18.06.08.84,1.06.11.15.76,1,.11.15.68.94.13.19.58.84.14.22.49.75.18.29.37.59.3.5.18.3.3.53-.24.14-.57.34q-.8.44-1.61.8a.78.78,0,0,0-.43,1,9,9,0,0,0,4.41,5.21.78.78,0,0,0,1-.26l0,0a3.9,3.9,0,0,1,4.63-1.48,3.86,3.86,0,0,1,1.67,1.22c.4.5.78,1,1.15,1.49l.36.47.16.21c1.09,1.46,2.06,2.85,2.83,4,.16.23.3.48.44.72l.1.2q.15.29.29.58l.08.18c.1.23.19.46.27.7l.08.23c.08.25.16.49.23.75l0,.13L60,69c.51-.36,1-.73,1.51-1.12l.68-.56.58-.47h0a35.55,35.55,0,0,0,3.36-3.28l-.19-.1A11.31,11.31,0,0,1,62.89,61.49Z"/><path class="cls-60" d="M62.89,61.31c-1-1-2.33-2.27-3.68-3.68l-.35-.37c-.43-.46-.86-.92-1.3-1.41A3.86,3.86,0,0,1,56.64,54a3.92,3.92,0,0,1,2.22-4.33l.05,0a.78.78,0,0,0,.43-.95,9,9,0,0,0-4.4-5.21.78.78,0,0,0-1,.26,23.72,23.72,0,0,1-1.64,2.15l-.65-.54c-.87-.73-1.9-1.65-3.06-2.8l-.65-.66-.31-.31c-.84-.87-1.73-1.84-2.65-2.91l.56-.56.32-.32L47,36.75l.37-.34,1.17-1,.42-.37,1.21-1,.72-.6C59.52,26.49,67,19.83,68,4.39c-15,3.87-20.14,12.41-25.35,22.22l-.35.64c-.27.49-.54,1-.81,1.46l-.24.41c-.28.48-.57,1-.85,1.43l-.21.33-.52.81c-1-1.55-2-3.21-3-5l0,0c-5.3-9.76-10.56-18.26-25.55-22L34.48,32.26h0L11.13,4.65c1.21,15.43,8.71,22,17.45,28.86l.71.57,1.15.94.48.41,1.13,1,.42.38,1.1,1,.34.33.61.59-.64.76-.07.08-1,1.08,0,0-1,1,0,0-.9.92h0l-.89.88-.07.07-.77.72-.17.16-.6.54-.34.3-.36.31-.44.37L27,45.65l-.27-.31c-.39-.48-.75-1-1.08-1.46a.78.78,0,0,0-1-.25,9,9,0,0,0-4.36,5.26.78.78,0,0,0,.44.94l.05,0a3.94,3.94,0,0,1,.56.31l.16.11a3.89,3.89,0,0,1,.33.27l.15.14a3.85,3.85,0,0,1,.3.34l.1.12a3.9,3.9,0,0,1,.29.48l.09.2c0,.11.09.22.13.33l.07.24c0,.11.05.22.07.33s0,.16,0,.24a3.92,3.92,0,0,1,0,1.17,3.87,3.87,0,0,1-.09.4c0,.08-.06.16-.09.24s-.06.16-.09.23a4,4,0,0,1-.21.4l-.06.11a3.88,3.88,0,0,1-.36.48c-.42.48-.85.94-1.27,1.4l-.4.43c-1.32,1.41-2.58,2.68-3.61,3.68a9.49,9.49,0,0,1-.73.63l-.32.23c-.16.12-.33.24-.49.35l0,0c-.51.32-1,.6-1.58.88q.64.7,1.31,1.36c.22.22.46.43.69.65l.57.54h0A35.66,35.66,0,0,0,19.76,69h0c0-.1.07-.21.1-.32a11.33,11.33,0,0,1,1.47-3.38c.8-1.2,1.81-2.67,3-4.23l.34-.46c.37-.5.75-1,1.15-1.51a3.91,3.91,0,0,1,6.3.21l0,0a.77.77,0,0,0,1,.26,9,9,0,0,0,4.36-5.25.79.79,0,0,0-.43-1,23.7,23.7,0,0,1-2.43-1.27l.3-.53.18-.32.29-.49.29-.48.25-.41.41-.64.21-.32.53-.79.16-.24.62-.88L38,46.8l.69-.93.17-.23.76-1,.14-.18.06.08.84,1.06.11.15.76,1,.11.15.68.94.13.19.58.84.14.22.49.75.18.29.37.59.3.5.18.3.3.53-.24.14-.57.34q-.8.44-1.61.8a.78.78,0,0,0-.43,1,9,9,0,0,0,4.41,5.21.78.78,0,0,0,1-.26l0,0a3.9,3.9,0,0,1,4.63-1.48A3.86,3.86,0,0,1,53.89,59c.4.5.78,1,1.15,1.49l.36.47.16.21c1.09,1.46,2.06,2.85,2.83,4,.16.23.3.48.44.72l.1.2q.15.29.29.58l.08.18c.1.23.19.46.27.7l.08.23c.08.25.16.49.23.75l0,.13.08.25c.51-.36,1-.73,1.51-1.12l.68-.56.58-.47h0a35.55,35.55,0,0,0,3.36-3.28l-.19-.1A11.31,11.31,0,0,1,62.89,61.31Z"/><path class="cls-61" d="M62.89,61.13c-1-1-2.33-2.27-3.68-3.68l-.35-.37c-.43-.46-.86-.92-1.3-1.41a3.86,3.86,0,0,1-.92-1.85,3.92,3.92,0,0,1,2.22-4.33l.05,0a.78.78,0,0,0,.43-.95,9,9,0,0,0-4.4-5.21.78.78,0,0,0-1,.26,23.72,23.72,0,0,1-1.64,2.15l-.65-.54c-.87-.73-1.9-1.65-3.06-2.8l-.65-.66-.31-.31c-.84-.87-1.73-1.84-2.65-2.91l.56-.56.32-.32L47,36.57l.37-.34,1.17-1,.42-.37,1.21-1,.72-.6C59.52,26.31,67,19.65,68,4.21c-15,3.87-20.14,12.41-25.35,22.22l-.35.64c-.27.49-.54,1-.81,1.46l-.24.41c-.28.48-.57,1-.85,1.43l-.21.33-.52.81c-1-1.55-2-3.21-3-5l0,0c-5.3-9.76-10.56-18.26-25.55-22L34.48,32.08h0L11.13,4.47c1.21,15.43,8.71,22,17.45,28.86l.71.57,1.15.94.48.41,1.13,1,.42.38,1.1,1,.34.33.61.59-.64.76-.07.08-1,1.08,0,0-1,1,0,0-.9.92h0l-.89.88-.07.07-.77.72-.17.16-.6.54-.34.3-.36.31-.44.37L27,45.47l-.27-.31c-.39-.48-.75-1-1.08-1.46a.78.78,0,0,0-1-.25,9,9,0,0,0-4.36,5.26.78.78,0,0,0,.44.94l.05,0a3.94,3.94,0,0,1,.56.31l.16.11a3.89,3.89,0,0,1,.33.27l.15.14a3.85,3.85,0,0,1,.3.34l.1.12a3.9,3.9,0,0,1,.29.48l.09.2c0,.11.09.22.13.33l.07.24c0,.11.05.22.07.33s0,.16,0,.24A3.92,3.92,0,0,1,23,54a3.87,3.87,0,0,1-.09.4c0,.08-.06.16-.09.24s-.06.16-.09.23a4,4,0,0,1-.21.4l-.06.11a3.88,3.88,0,0,1-.36.48c-.42.48-.85.94-1.27,1.4l-.4.43c-1.32,1.41-2.58,2.68-3.61,3.68a9.49,9.49,0,0,1-.73.63l-.32.23c-.16.12-.33.24-.49.35l0,0c-.51.32-1,.6-1.58.88q.64.7,1.31,1.36c.22.22.46.43.69.65l.57.54h0a35.66,35.66,0,0,0,3.55,2.81h0c0-.1.07-.21.1-.32a11.33,11.33,0,0,1,1.47-3.38c.8-1.2,1.81-2.67,3-4.23l.34-.46c.37-.5.75-1,1.15-1.51a3.91,3.91,0,0,1,6.3.21l0,0a.77.77,0,0,0,1,.26,9,9,0,0,0,4.36-5.25.79.79,0,0,0-.43-1,23.7,23.7,0,0,1-2.43-1.27l.3-.53.18-.32.29-.49.29-.48.25-.41.41-.64.21-.32.53-.79.16-.24.62-.88.16-.22.69-.93.17-.23.76-1,.14-.18.06.08.84,1.06.11.15.76,1,.11.15.68.94.13.19.58.84.14.22.49.75.18.29.37.59.3.5.18.3.3.53-.24.14-.57.34q-.8.44-1.61.8a.78.78,0,0,0-.43,1,9,9,0,0,0,4.41,5.21.78.78,0,0,0,1-.26l0,0a3.9,3.9,0,0,1,4.63-1.48,3.86,3.86,0,0,1,1.67,1.22c.4.5.78,1,1.15,1.49l.36.47.16.21c1.09,1.46,2.06,2.85,2.83,4,.16.23.3.48.44.72l.1.2q.15.29.29.58l.08.18c.1.23.19.46.27.7l.08.23c.08.25.16.49.23.75l0,.13.08.25c.51-.36,1-.73,1.51-1.12L62.2,67l.58-.47h0a35.55,35.55,0,0,0,3.36-3.28l-.19-.1A11.31,11.31,0,0,1,62.89,61.13Z"/><path class="cls-62" d="M62.89,60.95c-1-1-2.33-2.27-3.68-3.68l-.35-.37c-.43-.46-.86-.92-1.3-1.41a3.86,3.86,0,0,1-.92-1.85,3.92,3.92,0,0,1,2.22-4.33l.05,0a.78.78,0,0,0,.43-.95,9,9,0,0,0-4.4-5.21.78.78,0,0,0-1,.26,23.72,23.72,0,0,1-1.64,2.15L51.62,45c-.87-.73-1.9-1.65-3.06-2.8l-.65-.66-.31-.31c-.84-.87-1.73-1.84-2.65-2.91l.56-.56.32-.32L47,36.39l.37-.34,1.17-1,.42-.37,1.21-1,.72-.6C59.52,26.13,67,19.47,68,4c-15,3.87-20.14,12.41-25.35,22.22l-.35.64c-.27.49-.54,1-.81,1.46l-.24.41c-.28.48-.57,1-.85,1.43l-.21.33-.52.81c-1-1.55-2-3.21-3-5l0,0C31.38,16.52,26.13,8,11.13,4.29L34.48,31.9h0L11.13,4.29c1.21,15.43,8.71,22,17.45,28.86l.71.57,1.15.94.48.41,1.13,1,.42.38,1.1,1,.34.33.61.59-.64.76-.07.08-1,1.08,0,0-1,1,0,0-.9.92h0l-.89.88-.07.07-.77.72-.17.16-.6.54-.34.3-.36.31-.44.37L27,45.29,26.68,45c-.39-.48-.75-1-1.08-1.46a.78.78,0,0,0-1-.25,9,9,0,0,0-4.36,5.26.78.78,0,0,0,.44.94l.05,0a3.94,3.94,0,0,1,.56.31l.16.11a3.89,3.89,0,0,1,.33.27l.15.14a3.85,3.85,0,0,1,.3.34l.1.12a3.9,3.9,0,0,1,.29.48l.09.2c0,.11.09.22.13.33l.07.24c0,.11.05.22.07.33s0,.16,0,.24a3.92,3.92,0,0,1,0,1.17,3.87,3.87,0,0,1-.09.4c0,.08-.06.16-.09.24s-.06.16-.09.23a4,4,0,0,1-.21.4l-.06.11a3.88,3.88,0,0,1-.36.48c-.42.48-.85.94-1.27,1.4l-.4.43c-1.32,1.41-2.58,2.68-3.61,3.68a9.49,9.49,0,0,1-.73.63l-.32.23c-.16.12-.33.24-.49.35l0,0c-.51.32-1,.6-1.58.88q.64.7,1.31,1.36c.22.22.46.43.69.65l.57.54h0a35.66,35.66,0,0,0,3.55,2.81h0c0-.1.07-.21.1-.32a11.33,11.33,0,0,1,1.47-3.38c.8-1.2,1.81-2.67,3-4.23l.34-.46c.37-.5.75-1,1.15-1.51a3.91,3.91,0,0,1,6.3.21l0,0a.77.77,0,0,0,1,.26A9,9,0,0,0,37.46,54,.79.79,0,0,0,37,53a23.7,23.7,0,0,1-2.43-1.27l.3-.53.18-.32.29-.49.29-.48.25-.41.41-.64.21-.32.53-.79.16-.24.62-.88.16-.22.69-.93.17-.23.76-1,.14-.18.06.08.84,1.06.11.15.76,1,.11.15.68.94.13.19.58.84.14.22.49.75.18.29.37.59.3.5.18.3.3.53-.24.14-.57.34q-.8.44-1.61.8a.78.78,0,0,0-.43,1,9,9,0,0,0,4.41,5.21.78.78,0,0,0,1-.26l0,0a3.9,3.9,0,0,1,4.63-1.48,3.86,3.86,0,0,1,1.67,1.22c.4.5.78,1,1.15,1.49l.36.47.16.21c1.09,1.46,2.06,2.85,2.83,4,.16.23.3.48.44.72l.1.2q.15.29.29.58l.08.18c.1.23.19.46.27.7l.08.23c.08.25.16.49.23.75l0,.13.08.25c.51-.36,1-.73,1.51-1.12l.68-.56.58-.47h0a35.55,35.55,0,0,0,3.36-3.28L66,63A11.31,11.31,0,0,1,62.89,60.95Z"/><path class="cls-63" d="M62.89,60.77c-1-1-2.33-2.27-3.68-3.68l-.35-.37c-.43-.46-.86-.92-1.3-1.41a3.86,3.86,0,0,1-.92-1.85,3.92,3.92,0,0,1,2.22-4.33l.05,0a.78.78,0,0,0,.43-.95A9,9,0,0,0,54.93,43a.78.78,0,0,0-1,.26,23.72,23.72,0,0,1-1.64,2.15l-.65-.54c-.87-.73-1.9-1.65-3.06-2.8l-.65-.66-.31-.31c-.84-.87-1.73-1.84-2.65-2.91l.56-.56.32-.32L47,36.21l.37-.34,1.17-1,.42-.37,1.21-1,.72-.6C59.52,25.95,67,19.29,68,3.85c-15,3.87-20.14,12.41-25.35,22.22l-.35.64c-.27.49-.54,1-.81,1.46l-.24.41c-.28.48-.57,1-.85,1.43l-.21.33-.52.81c-1-1.55-2-3.21-3-5l0,0c-5.3-9.76-10.56-18.26-25.55-22L34.48,31.72h0L11.13,4.11c1.21,15.43,8.71,22,17.45,28.86l.71.57,1.15.94.48.41,1.13,1,.42.38,1.1,1,.34.33.61.59-.64.76-.07.08-1,1.08,0,0-1,1,0,0-.9.92h0L30,43l-.07.07-.77.72-.17.16-.6.54-.34.3-.36.31-.44.37L27,45.11l-.27-.31c-.39-.48-.75-1-1.08-1.46a.78.78,0,0,0-1-.25,9,9,0,0,0-4.36,5.26.78.78,0,0,0,.44.94l.05,0a3.94,3.94,0,0,1,.56.31l.16.11a3.89,3.89,0,0,1,.33.27l.15.14a3.85,3.85,0,0,1,.3.34l.1.12a3.9,3.9,0,0,1,.29.48l.09.2c0,.11.09.22.13.33l.07.24c0,.11.05.22.07.33s0,.16,0,.24a3.92,3.92,0,0,1,0,1.17,3.87,3.87,0,0,1-.09.4c0,.08-.06.16-.09.24s-.06.16-.09.23a4,4,0,0,1-.21.4l-.06.11a3.88,3.88,0,0,1-.36.48c-.42.48-.85.94-1.27,1.4l-.4.43C19.08,58.71,17.82,60,16.79,61a9.49,9.49,0,0,1-.73.63l-.32.23c-.16.12-.33.24-.49.35l0,0c-.51.32-1,.6-1.58.88q.64.7,1.31,1.36c.22.22.46.43.69.65l.57.54h0a35.66,35.66,0,0,0,3.55,2.81h0c0-.1.07-.21.1-.32a11.33,11.33,0,0,1,1.47-3.38c.8-1.2,1.81-2.67,3-4.23l.34-.46c.37-.5.75-1,1.15-1.51a3.91,3.91,0,0,1,6.3.21l0,0a.77.77,0,0,0,1,.26,9,9,0,0,0,4.36-5.25.79.79,0,0,0-.43-1,23.7,23.7,0,0,1-2.43-1.27l.3-.53.18-.32.29-.49.29-.48.25-.41.41-.64.21-.32.53-.79.16-.24.62-.88.16-.22.69-.93.17-.23.76-1,.14-.18.06.08.84,1.06.11.15.76,1,.11.15.68.94.13.19.58.84.14.22.49.75.18.29.37.59.3.5.18.3.3.53-.24.14-.57.34q-.8.44-1.61.8a.78.78,0,0,0-.43,1A9,9,0,0,0,46.56,59a.78.78,0,0,0,1-.26l0,0a3.9,3.9,0,0,1,4.63-1.48,3.86,3.86,0,0,1,1.67,1.22c.4.5.78,1,1.15,1.49l.36.47.16.21c1.09,1.46,2.06,2.85,2.83,4,.16.23.3.48.44.72l.1.2q.15.29.29.58l.08.18c.1.23.19.46.27.7l.08.23c.08.25.16.49.23.75l0,.13.08.25c.51-.36,1-.73,1.51-1.12l.68-.56.58-.47h0a35.55,35.55,0,0,0,3.36-3.28L66,62.8A11.31,11.31,0,0,1,62.89,60.77Z"/><path class="cls-64" d="M62.89,60.59c-1-1-2.33-2.27-3.68-3.68l-.35-.37c-.43-.46-.86-.92-1.3-1.41a3.86,3.86,0,0,1-.92-1.85A3.92,3.92,0,0,1,58.86,49l.05,0a.78.78,0,0,0,.43-.95,9,9,0,0,0-4.4-5.21.78.78,0,0,0-1,.26,23.72,23.72,0,0,1-1.64,2.15l-.65-.54c-.87-.73-1.9-1.65-3.06-2.8l-.65-.66-.31-.31C46.75,40,45.86,39,44.95,38l.56-.56.32-.32L47,36l.37-.34,1.17-1,.42-.37,1.21-1,.72-.6C59.52,25.77,67,19.11,68,3.67c-15,3.87-20.14,12.41-25.35,22.22l-.35.64c-.27.49-.54,1-.81,1.46l-.24.41c-.28.48-.57,1-.85,1.43l-.21.33L39.7,31c-1-1.55-2-3.21-3-5l0,0c-5.3-9.76-10.56-18.26-25.55-22L34.48,31.54h0L11.13,3.93c1.21,15.43,8.71,22,17.45,28.86l.71.57,1.15.94.48.41,1.13,1,.42.38,1.1,1,.34.33.61.59-.64.76-.07.08-1,1.08,0,0-1,1,0,0-.9.92h0l-.89.88-.07.07-.77.72-.17.16-.6.54-.34.3-.36.31-.44.37L27,44.93l-.27-.31c-.39-.48-.75-1-1.08-1.46a.78.78,0,0,0-1-.25,9,9,0,0,0-4.36,5.26.78.78,0,0,0,.44.94l.05,0a3.94,3.94,0,0,1,.56.31l.16.11a3.89,3.89,0,0,1,.33.27l.15.14a3.85,3.85,0,0,1,.3.34l.1.12a3.9,3.9,0,0,1,.29.48l.09.2c0,.11.09.22.13.33l.07.24c0,.11.05.22.07.33s0,.16,0,.24a3.92,3.92,0,0,1,0,1.17,3.87,3.87,0,0,1-.09.4c0,.08-.06.16-.09.24s-.06.16-.09.23a4,4,0,0,1-.21.4l-.06.11a3.88,3.88,0,0,1-.36.48c-.42.48-.85.94-1.27,1.4l-.4.43c-1.32,1.41-2.58,2.68-3.61,3.68a9.49,9.49,0,0,1-.73.63l-.32.23c-.16.12-.33.24-.49.35l0,0c-.51.32-1,.6-1.58.88q.64.7,1.31,1.36c.22.22.46.43.69.65l.57.54h0a35.66,35.66,0,0,0,3.55,2.81h0c0-.1.07-.21.1-.32a11.33,11.33,0,0,1,1.47-3.38c.8-1.2,1.81-2.67,3-4.23l.34-.46c.37-.5.75-1,1.15-1.51a3.91,3.91,0,0,1,6.3.21l0,0a.77.77,0,0,0,1,.26,9,9,0,0,0,4.36-5.25.79.79,0,0,0-.43-1,23.7,23.7,0,0,1-2.43-1.27l.3-.53.18-.32.29-.49.29-.48.25-.41.41-.64.21-.32.53-.79.16-.24.62-.88.16-.22.69-.93.17-.23.76-1,.14-.18.06.08.84,1.06.11.15.76,1,.11.15.68.94.13.19.58.84.14.22.49.75.18.29.37.59.3.5.18.3.3.53-.24.14-.57.34q-.8.44-1.61.8a.78.78,0,0,0-.43,1,9,9,0,0,0,4.41,5.21.78.78,0,0,0,1-.26l0,0A3.9,3.9,0,0,1,52.23,57a3.86,3.86,0,0,1,1.67,1.22c.4.5.78,1,1.15,1.49l.36.47.16.21c1.09,1.46,2.06,2.85,2.83,4,.16.23.3.48.44.72l.1.2q.15.29.29.58l.08.18c.1.23.19.46.27.7l.08.23c.08.25.16.49.23.75l0,.13.08.25c.51-.36,1-.73,1.51-1.12l.68-.56.58-.47h0a35.55,35.55,0,0,0,3.36-3.28l-.19-.1A11.31,11.31,0,0,1,62.89,60.59Z"/><path class="cls-65" d="M62.89,60.41c-1-1-2.33-2.27-3.68-3.68l-.35-.37c-.43-.46-.86-.92-1.3-1.41a3.86,3.86,0,0,1-.92-1.85,3.92,3.92,0,0,1,2.22-4.33l.05,0a.78.78,0,0,0,.43-.95,9,9,0,0,0-4.4-5.21.78.78,0,0,0-1,.26A23.72,23.72,0,0,1,52.27,45l-.65-.54c-.87-.73-1.9-1.65-3.06-2.8L47.9,41l-.31-.31c-.84-.87-1.73-1.84-2.65-2.91l.56-.56.32-.32L47,35.85l.37-.34,1.17-1,.42-.37,1.21-1,.72-.6C59.52,25.58,67,18.93,68,3.49c-15,3.87-20.14,12.41-25.35,22.22l-.35.64c-.27.49-.54,1-.81,1.46l-.24.41c-.28.48-.57,1-.85,1.43l-.21.33-.52.81c-1-1.55-2-3.21-3-5l0,0C31.38,16,26.13,7.48,11.13,3.75L34.48,31.36h0L11.13,3.75c1.21,15.43,8.71,22,17.45,28.86l.71.57,1.15.94.48.41,1.13,1,.42.38,1.1,1,.34.33.61.59-.64.76-.07.08-1,1.08,0,0-1,1,0,0-.9.92h0l-.89.88-.07.07-.77.72-.17.16-.6.54-.34.3-.36.31-.44.37L27,44.75l-.27-.31c-.39-.48-.75-1-1.08-1.46a.78.78,0,0,0-1-.25A9,9,0,0,0,20.23,48a.78.78,0,0,0,.44.94l.05,0a3.94,3.94,0,0,1,.56.31l.16.11a3.89,3.89,0,0,1,.33.27l.15.14a3.85,3.85,0,0,1,.3.34l.1.12a3.9,3.9,0,0,1,.29.48l.09.2c0,.11.09.22.13.33l.07.24c0,.11.05.22.07.33s0,.16,0,.24a3.92,3.92,0,0,1,0,1.17,3.87,3.87,0,0,1-.09.4c0,.08-.06.16-.09.24s-.06.16-.09.23a4,4,0,0,1-.21.4l-.06.11a3.88,3.88,0,0,1-.36.48c-.42.48-.85.94-1.27,1.4l-.4.43c-1.32,1.41-2.58,2.68-3.61,3.68a9.49,9.49,0,0,1-.73.63l-.32.23c-.16.12-.33.24-.49.35l0,0c-.51.32-1,.6-1.58.88q.64.7,1.31,1.36c.22.22.46.43.69.65l.57.54h0a35.66,35.66,0,0,0,3.55,2.81h0c0-.1.07-.21.1-.32a11.33,11.33,0,0,1,1.47-3.38c.8-1.2,1.81-2.67,3-4.23l.34-.46c.37-.5.75-1,1.15-1.51a3.91,3.91,0,0,1,6.3.21l0,0a.77.77,0,0,0,1,.26,9,9,0,0,0,4.36-5.25.79.79,0,0,0-.43-1,23.7,23.7,0,0,1-2.43-1.27l.3-.53.18-.32.29-.49.29-.48.25-.41.41-.64.21-.32.53-.79.16-.24.62-.88L38,45.9l.69-.93.17-.23.76-1,.14-.18.06.08.84,1.06.11.15.76,1,.11.15.68.94.13.19L43,48l.14.22.49.75.18.29.37.59.3.5.18.3.3.53-.24.14-.57.34q-.8.44-1.61.8a.78.78,0,0,0-.43,1,9,9,0,0,0,4.41,5.21.78.78,0,0,0,1-.26l0,0a3.9,3.9,0,0,1,4.63-1.48,3.86,3.86,0,0,1,1.67,1.22c.4.5.78,1,1.15,1.49l.36.47.16.21c1.09,1.46,2.06,2.85,2.83,4,.16.23.3.48.44.72l.1.2q.15.29.29.58l.08.18c.1.23.19.46.27.7l.08.23c.08.25.16.49.23.75l0,.13L60,68c.51-.36,1-.73,1.51-1.12l.68-.56.58-.47h0a35.55,35.55,0,0,0,3.36-3.28l-.19-.1A11.31,11.31,0,0,1,62.89,60.41Z"/><path class="cls-66" d="M62.89,60.22c-1-1-2.33-2.27-3.68-3.68l-.35-.37c-.43-.46-.86-.92-1.3-1.41a3.86,3.86,0,0,1-.92-1.85,3.92,3.92,0,0,1,2.22-4.33l.05,0a.78.78,0,0,0,.43-.95,9,9,0,0,0-4.4-5.21.78.78,0,0,0-1,.26,23.72,23.72,0,0,1-1.64,2.15l-.65-.54c-.87-.73-1.9-1.65-3.06-2.8l-.65-.66-.31-.31c-.84-.87-1.73-1.84-2.65-2.91l.56-.56.32-.32L47,35.67l.37-.34,1.17-1,.42-.37,1.21-1,.72-.6C59.52,25.4,67,18.75,68,3.31c-15,3.87-20.14,12.41-25.35,22.22l-.35.64c-.27.49-.54,1-.81,1.46l-.24.41c-.28.48-.57,1-.85,1.43l-.21.33-.52.81c-1-1.55-2-3.21-3-5l0,0c-5.3-9.76-10.56-18.26-25.55-22L34.48,31.18h0L11.13,3.57c1.21,15.43,8.71,22,17.45,28.86l.71.57,1.15.94.48.41,1.13,1,.42.38,1.1,1,.34.33.61.59-.64.76-.07.08-1,1.08,0,0-1,1,0,0-.9.92h0l-.89.88-.07.07-.77.72-.17.16-.6.54-.34.3-.36.31-.44.37L27,44.57l-.27-.31c-.39-.48-.75-1-1.08-1.46a.78.78,0,0,0-1-.25,9,9,0,0,0-4.36,5.26.78.78,0,0,0,.44.94l.05,0a3.94,3.94,0,0,1,.56.31l.16.11a3.89,3.89,0,0,1,.33.27l.15.14a3.85,3.85,0,0,1,.3.34l.1.12a3.9,3.9,0,0,1,.29.48l.09.2c0,.11.09.22.13.33l.07.24c0,.11.05.22.07.33s0,.16,0,.24a3.92,3.92,0,0,1,0,1.17,3.87,3.87,0,0,1-.09.4c0,.08-.06.16-.09.24s-.06.16-.09.23a4,4,0,0,1-.21.4l-.06.11a3.88,3.88,0,0,1-.36.48c-.42.48-.85.94-1.27,1.4l-.4.43c-1.32,1.41-2.58,2.68-3.61,3.68a9.49,9.49,0,0,1-.73.63l-.32.23c-.16.12-.33.24-.49.35l0,0c-.51.32-1,.6-1.58.88q.64.7,1.31,1.36c.22.22.46.43.69.65l.57.54h0a35.66,35.66,0,0,0,3.55,2.81h0c0-.1.07-.21.1-.32a11.33,11.33,0,0,1,1.47-3.38c.8-1.2,1.81-2.67,3-4.23l.34-.46c.37-.5.75-1,1.15-1.51a3.91,3.91,0,0,1,6.3.21l0,0a.77.77,0,0,0,1,.26,9,9,0,0,0,4.36-5.25.79.79,0,0,0-.43-1A23.7,23.7,0,0,1,34.59,51l.3-.53.18-.32.29-.49.29-.48.25-.41.41-.64.21-.32.53-.79.16-.24.62-.88.16-.22.69-.93.17-.23.76-1,.14-.18.06.08.84,1.06.11.15.76,1,.11.15.68.94.13.19.58.84.14.22.49.75.18.29.37.59.3.5.18.3L45,51l-.24.14-.57.34q-.8.44-1.61.8a.78.78,0,0,0-.43,1,9,9,0,0,0,4.41,5.21.78.78,0,0,0,1-.26l0,0a3.9,3.9,0,0,1,4.63-1.48,3.86,3.86,0,0,1,1.67,1.22c.4.5.78,1,1.15,1.49l.36.47.16.21c1.09,1.46,2.06,2.85,2.83,4,.16.23.3.48.44.72l.1.2q.15.29.29.58l.08.18c.1.23.19.46.27.7l.08.23c.08.25.16.49.23.75l0,.13.08.25c.51-.36,1-.73,1.51-1.12l.68-.56.58-.47h0a35.55,35.55,0,0,0,3.36-3.28l-.19-.1A11.31,11.31,0,0,1,62.89,60.22Z"/><path class="cls-67" d="M62.89,60c-1-1-2.33-2.27-3.68-3.68L58.86,56c-.43-.46-.86-.92-1.3-1.41a3.86,3.86,0,0,1-.92-1.85,3.91,3.91,0,0,1,2.22-4.33l.05,0a.78.78,0,0,0,.43-.95,9,9,0,0,0-4.4-5.21.78.78,0,0,0-1,.26,23.72,23.72,0,0,1-1.64,2.15l-.65-.54c-.87-.73-1.9-1.65-3.06-2.8l-.65-.66-.31-.31c-.84-.87-1.73-1.84-2.65-2.91l.56-.56.32-.32L47,35.49l.37-.34,1.17-1,.42-.37,1.21-1,.72-.6C59.52,25.22,67,18.57,68,3.13,53.06,7,47.89,15.54,42.67,25.35l-.35.64c-.27.49-.54,1-.81,1.46l-.24.41c-.28.48-.57,1-.85,1.43l-.21.33-.52.81c-1-1.55-2-3.21-3-5l0,0c-5.3-9.76-10.56-18.26-25.55-22L34.48,31h0L11.13,3.39c1.21,15.43,8.71,22,17.45,28.86l.71.57,1.15.94.48.41,1.13,1,.42.38,1.1,1,.34.33.61.59-.64.76-.07.08-1,1.08,0,0-1,1,0,0-.9.92h0l-.89.88-.07.07-.77.72-.17.16-.6.54-.34.3-.36.31-.44.37L27,44.39l-.27-.31c-.39-.48-.75-1-1.08-1.46a.78.78,0,0,0-1-.25,9,9,0,0,0-4.36,5.26.78.78,0,0,0,.44.94l.05,0a3.94,3.94,0,0,1,.56.31l.16.11a3.89,3.89,0,0,1,.33.27l.15.14a3.85,3.85,0,0,1,.3.34l.1.12a3.9,3.9,0,0,1,.29.48l.09.2c0,.11.09.22.13.33l.07.24c0,.11.05.22.07.33s0,.16,0,.24a3.92,3.92,0,0,1,0,1.17,3.87,3.87,0,0,1-.09.4c0,.08-.06.16-.09.24s-.06.16-.09.23a4,4,0,0,1-.21.4l-.06.11a3.88,3.88,0,0,1-.36.48c-.42.48-.85.94-1.27,1.4l-.4.43c-1.32,1.41-2.58,2.68-3.61,3.68a9.49,9.49,0,0,1-.73.63l-.32.23c-.16.12-.33.24-.49.35l0,0c-.51.32-1,.6-1.58.88q.64.7,1.31,1.36c.22.22.46.43.69.65l.57.54h0a35.66,35.66,0,0,0,3.55,2.81h0c0-.1.07-.21.1-.32A11.33,11.33,0,0,1,21.32,64c.8-1.2,1.81-2.67,3-4.23l.34-.46c.37-.5.75-1,1.15-1.51a3.91,3.91,0,0,1,6.3.21l0,0a.78.78,0,0,0,1,.26,9,9,0,0,0,4.36-5.25.79.79,0,0,0-.43-1,23.7,23.7,0,0,1-2.43-1.27l.3-.53.18-.32.29-.49.29-.48.25-.41.41-.64.21-.32.53-.79.16-.24.62-.88.16-.22.69-.93.17-.23.76-1,.14-.18.06.08.84,1.06.11.15.76,1,.11.15.68.94.13.19.58.84.14.22.49.75.18.29.37.59.3.5.18.3.3.53-.24.14-.57.34q-.8.44-1.61.8a.78.78,0,0,0-.43,1,9,9,0,0,0,4.41,5.21.78.78,0,0,0,1-.26l0,0a3.9,3.9,0,0,1,4.63-1.48,3.86,3.86,0,0,1,1.67,1.22c.4.5.78,1,1.15,1.49l.36.47.16.21c1.09,1.46,2.06,2.85,2.83,4,.16.23.3.48.44.72l.1.2q.15.29.29.58l.08.18c.1.23.19.46.27.7l.08.23c.08.25.16.49.23.75l0,.13.08.25c.51-.36,1-.73,1.51-1.12l.68-.56.58-.47h0a35.55,35.55,0,0,0,3.36-3.28l-.19-.1A11.31,11.31,0,0,1,62.89,60Z"/><path class="cls-68" d="M52.46,44.4A64.7,64.7,0,0,1,36.69,25C31.38,15.22,26.13,6.73,11.13,3L49,47.81a28.67,28.67,0,0,0,3.42-3.41Zm0,0"/><path class="cls-69" d="M45.1,50.61A28.56,28.56,0,0,0,49,47.81L11.13,3c1.21,15.43,8.71,22,17.45,28.86A64.75,64.75,0,0,1,45.1,50.61Zm0,0"/><path class="cls-68" d="M30.48,47.84a28.71,28.71,0,0,1-3.4-3.33A64.72,64.72,0,0,0,42.67,25C47.89,15.15,53.06,6.61,68,2.74L30.54,47.89l-.06,0Zm0,0"/><path class="cls-70" d="M34.49,50.65a28.55,28.55,0,0,1-4-2.76L68,2.74c-1.07,15.44-8.51,22.09-17.19,29a64.76,64.76,0,0,0-16.35,18.9Zm0,0"/><path class="cls-71" d="M66.14,61.78l-.19-.1a11.31,11.31,0,0,1-3.07-2c-1.48-1.41-3.41-3.33-5.33-5.45a3.86,3.86,0,0,1-.94-1.92,4.57,4.57,0,0,1-4.46,3.78,3.86,3.86,0,0,1,1.73,1.25c1.78,2.24,3.35,4.47,4.49,6.16a11.31,11.31,0,0,1,1.5,3.36c0,.13.08.26.13.38a35.6,35.6,0,0,0,6.13-5.43Zm0,0"/><path class="cls-72" d="M61.17,62.37c-1.58-2-3.72-4.69-6.13-7.37a4.53,4.53,0,0,1-2.89,1.06,3.86,3.86,0,0,1,1.73,1.25c1.78,2.24,3.35,4.47,4.5,6.16A13.41,13.41,0,0,1,60,67.21q1.44-1,2.77-2.15a13.67,13.67,0,0,0-1.61-2.7Zm0,0"/><path class="cls-71" d="M23,52.41a3.87,3.87,0,0,1-.93,1.95c-1.9,2.14-3.81,4.08-5.28,5.5a11.31,11.31,0,0,1-3,2.06l-.11.06a35.58,35.58,0,0,0,6.12,5.35c0-.1.07-.21.1-.32a11.31,11.31,0,0,1,1.47-3.38c1.13-1.7,2.68-3.94,4.44-6.2a3.86,3.86,0,0,1,1.74-1.27A4.7,4.7,0,0,1,23,52.41Zm0,0"/><path class="cls-72" d="M18.73,62.29c1.59-1.86,3.67-4.38,5.7-7.16l.09-.13A4.67,4.67,0,0,1,23,52.41a3.87,3.87,0,0,1-.93,1.95c-1.9,2.14-3.81,4.08-5.28,5.5a11.31,11.31,0,0,1-3,2.06l-.11.06a35.5,35.5,0,0,0,2.57,2.55,12.85,12.85,0,0,0,2.53-2.23Zm0,0"/><path class="cls-72" d="M57.56,54.2a3.87,3.87,0,0,1-.94-1.92,4.57,4.57,0,0,1-4.46,3.78,3.86,3.86,0,0,1,1.73,1.25c.65.82,1.27,1.63,1.85,2.42a4.27,4.27,0,0,0,3.89-3.3c-.68-.7-1.38-1.45-2.08-2.22Zm0,0"/><path class="cls-73" d="M58.25,58.71c-1-1.19-2.06-2.45-3.2-3.71h0a4.53,4.53,0,0,1-2.88,1.06,3.86,3.86,0,0,1,1.73,1.25c.63.79,1.26,1.62,1.85,2.42a4.24,4.24,0,0,0,2.5-1Zm0,0"/><path class="cls-74" d="M66.14,61.78l-.19-.1a11.31,11.31,0,0,1-3.07-2,3.53,3.53,0,0,1-4.5,3.81h0a11.31,11.31,0,0,1,1.5,3.36c0,.13.08.26.13.38a35.58,35.58,0,0,0,6.13-5.43Zm0,0"/><path class="cls-71" d="M62.78,65.06a14.07,14.07,0,0,0-1.24-2.19,3.49,3.49,0,0,1-3.15.59h0A13.42,13.42,0,0,1,60,67.21c1-.67,1.93-1.43,2.77-2.15Zm0,0"/><path class="cls-72" d="M23,52.41a3.87,3.87,0,0,1-.93,1.95c-.69.78-1.38,1.53-2.06,2.24a4.27,4.27,0,0,0,3.92,3.26c.58-.79,1.19-1.61,1.83-2.43a3.86,3.86,0,0,1,1.74-1.27A4.7,4.7,0,0,1,23,52.41Zm0,0"/><path class="cls-73" d="M23,52.41a3.86,3.86,0,0,1-.28.94,3.9,3.9,0,0,1-.64,1c-.68.77-1.5,1.66-2.06,2.24a4.25,4.25,0,0,0,1.49,2.34c.84-1,2.48-3.17,3-3.93A4.7,4.7,0,0,1,23,52.41Zm0,0"/><path class="cls-74" d="M16.79,59.86a11.31,11.31,0,0,1-3,2.06l-.11.06a35.57,35.57,0,0,0,6.12,5.35c0-.1.07-.21.1-.32a11.33,11.33,0,0,1,1.47-3.38,3.53,3.53,0,0,1-4.53-3.77Zm0,0"/><path class="cls-71" d="M16.79,59.86A11.87,11.87,0,0,1,13.63,62a35.81,35.81,0,0,0,2.57,2.55A13.47,13.47,0,0,0,18.07,63a3.5,3.5,0,0,1-1.28-3.14Zm0,0"/><path class="cls-75" d="M34.48,30.61A6.47,6.47,0,0,1,28.8,32,64.68,64.68,0,0,1,45.1,50.61,28.56,28.56,0,0,0,49,47.81Zm0,0"/><path class="cls-69" d="M36.69,25a6.49,6.49,0,0,1-2.21,5.61L49,47.81a28.69,28.69,0,0,0,3.42-3.41A64.7,64.7,0,0,1,36.69,25Zm0,0"/><path class="cls-69" d="M42.56,25.16A64.66,64.66,0,0,1,27.08,44.51a28.75,28.75,0,0,0,3.4,3.33l.06,0L44.84,30.66a6.48,6.48,0,0,1-2.28-5.49Zm0,0"/><path class="cls-68" d="M44.84,30.66,30.54,47.89a28.55,28.55,0,0,0,4,2.76A64.63,64.63,0,0,1,50.51,32a6.47,6.47,0,0,1-5.66-1.36Zm0,0"/><path class="cls-76" d="M24.58,42a.78.78,0,0,1,1,.25A28.76,28.76,0,0,0,37,51.74a.79.79,0,0,1,.43,1,9,9,0,0,1-4.36,5.25.78.78,0,0,1-1-.26l0,0a3.9,3.9,0,0,0-4.7-1.42A4.4,4.4,0,0,1,23,52.56a3.91,3.91,0,0,0-2.25-4.37l-.05,0a.78.78,0,0,1-.44-.94A9,9,0,0,1,24.58,42Zm0,0"/><path class="cls-77" d="M30.75,47.78a27.37,27.37,0,0,1-5.14-5.55.78.78,0,0,0-1-.25,9,9,0,0,0-4.36,5.26.78.78,0,0,0,.44.94l.05,0A3.89,3.89,0,0,1,23,51.36a5.35,5.35,0,0,1,7.73-3.58Zm0,0"/><path class="cls-76" d="M54.93,41.84a.78.78,0,0,0-1,.26,28.76,28.76,0,0,1-11.34,9.61.79.79,0,0,0-.43,1,9,9,0,0,0,4.41,5.21.78.78,0,0,0,1-.26l0,0a3.91,3.91,0,0,1,4.69-1.46,4.4,4.4,0,0,0,4.36-3.7A3.91,3.91,0,0,1,58.86,48l.05,0a.78.78,0,0,0,.43-.95,9,9,0,0,0-4.4-5.22Zm0,0"/><path class="cls-77" d="M48.83,47.69a27.28,27.28,0,0,1-6.25,4,.79.79,0,0,0-.43,1,9,9,0,0,0,4.41,5.21.78.78,0,0,0,1-.26l0,0a3.91,3.91,0,0,1,4.69-1.46,4.41,4.41,0,0,0,4.06-2.65,5.36,5.36,0,0,1-7.51-5.77Zm0,0"/></g></g></g></svg>