<svg xmlns="http://www.w3.org/2000/svg" viewBox="0 0 146 146"><defs><style>.cls-1{fill:#e6e6e6;}.cls-2,.cls-3{fill:none;stroke:#fff;stroke-linecap:round;stroke-miterlimit:10;stroke-width:2px;}.cls-2{fill-rule:evenodd;}</style></defs><title>资源 9</title><g id="图层_2" data-name="图层 2"><g id="内容"><rect class="cls-1" width="146" height="146" rx="12.23" ry="12.23"/><path class="cls-2" d="M111.75,79.58V67.83A13.08,13.08,0,0,0,98.67,54.75H79.25V51.67a6.42,6.42,0,0,0-6.42-6.42H50.67a6.42,6.42,0,0,0-6.42,6.42v3.19a13.08,13.08,0,0,0-11.5,13V87.67a13.08,13.08,0,0,0,13.08,13.08H92.75"/><circle class="cls-3" cx="62.75" cy="76.75" r="17.5"/><path class="cls-2" d="M52.7,76.75a10,10,0,0,1,10-10"/><line class="cls-3" x1="89.25" y1="88.75" x2="113.25" y2="88.75"/><line class="cls-3" x1="101.25" y1="76.75" x2="101.25" y2="100.75"/></g></g></svg>